<svg preserveAspectRatio="none" width="100%" height="100%" overflow="visible" style="display: block;" viewBox="0 0 32 32" fill="none" xmlns="http://www.w3.org/2000/svg">
<g id="Stylized product icon">
<path id="Polygon 2" d="M15.2856 13.5877C17.2585 13.0627 19.0639 14.8558 18.5352 16.8153L14.9668 30.0423C14.4382 32.0018 11.972 32.6581 10.5277 31.2236L0.778775 21.5408C-0.665516 20.1064 -0.00470834 17.6569 1.96823 17.1319L15.2856 13.5877Z" fill="var(--fill-0, #50CEE1)"/>
<path id="Polygon 3" opacity="0.6" d="M16.6964 18.5394C14.7216 19.0714 12.9186 17.2696 13.451 15.2962L17.0445 1.9758C17.5769 0.00240298 20.0454 -0.662577 21.4878 0.778834L31.2242 10.5084C32.6666 11.9498 32.0012 14.4165 30.0263 14.9485L16.6964 18.5394Z" fill="var(--fill-0, #146DA6)"/>
<path id="Rectangle 4365" opacity="0.4" d="M11.7163 31.9095C10.3008 31.5329 9.46082 30.0878 9.84009 28.6819L17.0508 1.95391C17.4301 0.54805 18.885 -0.286247 20.3004 0.0904506C21.7159 0.467149 22.5559 1.91219 22.1766 3.31805L14.9659 30.0461C14.5867 31.452 13.1317 32.2862 11.7163 31.9095Z" fill="var(--fill-0, #146DA6)"/>
</g>
</svg>
