<svg preserveAspectRatio="none" width="100%" height="100%" overflow="visible" style="display: block;" viewBox="0 0 21 28" fill="none" xmlns="http://www.w3.org/2000/svg">
<path id="Large avatar" d="M14 0C15.9103 0 17.5478 0.682261 18.9123 2.04678C20.2768 3.41131 20.9591 5.07602 20.9591 7.04094C20.9591 8.95127 20.2768 10.5887 18.9123 11.9532C17.5478 13.3177 15.9103 14 14 14C12.0897 14 10.4522 13.3177 9.08772 11.9532C7.7232 10.5887 7.04094 8.95127 7.04094 7.04094C7.04094 5.07602 7.7232 3.41131 9.08772 2.04678C10.4522 0.682261 12.0897 0 14 0ZM16 17C16 17.4795 16 18.3401 16 19C16 19.5 16 20 16 21C16 22.5 16 23.7446 16 25V28H0V24.4795C0 23.2242 0.62768 22.078 1.88304 21.0409C3.1384 19.9493 4.83041 19.1033 6.95906 18.5029C9.1423 17.848 13.4893 17 16 17Z" fill="var(--fill-0, #50CEE1)"/>
</svg>
