<svg preserveAspectRatio="none" width="100%" height="100%" overflow="visible" style="display: block;" viewBox="0 0 32 28" fill="none" xmlns="http://www.w3.org/2000/svg">
<g id="App icon">
<path id="&#243;&#177;&#138;&#141;" d="M23.0885 3.3168V4.93664H26V8H19C17.3431 8 16 9.34315 16 11H14V28H0V4.93664H2.91146V3.3168C2.91146 2.39118 3.18229 1.61983 3.72396 1.00275C4.31076 0.334252 4.98785 0 5.75521 0H8.66667C9.47917 0 10.1562 0.334252 10.6979 1.00275C11.2847 1.61983 11.5781 2.39118 11.5781 3.3168V4.93664H14.4219V3.3168C14.4219 2.39118 14.6927 1.61983 15.2344 1.00275C15.8212 0.334252 16.5208 0 17.3333 0H20.2448C21.0122 0 21.6667 0.334252 22.2083 1.00275C22.7951 1.61983 23.0885 2.39118 23.0885 3.3168Z" fill="var(--fill-0, #50CEE1)"/>
<path id="&#243;&#177;&#138;&#136;" opacity="0.6" d="M30.2083 13.1736V12.1322C30.2083 11.5372 30.0278 11.0413 29.6667 10.6446C29.3333 10.2149 28.9306 10 28.4583 10H26.6667C26.1667 10 25.7361 10.2149 25.375 10.6446C25.0417 11.0413 24.875 11.5372 24.875 12.1322V13.1736H23.125V12.1322C23.125 11.5372 22.9444 11.0413 22.5833 10.6446C22.25 10.2149 21.8333 10 21.3333 10H19.5417C19.0694 10 18.6528 10.2149 18.2917 10.6446C17.9583 11.0413 17.7917 11.5372 17.7917 12.1322V13.1736H16V28H32V13.1736H30.2083Z" fill="var(--fill-0, #146DA6)"/>
</g>
</svg>
