<svg preserveAspectRatio="none" width="100%" height="100%" overflow="visible" style="display: block;" viewBox="0 0 20 18" fill="none" xmlns="http://www.w3.org/2000/svg">
<path id="&#243;&#177;&#146;&#148;" opacity="0.6" d="M7.98122 12.9844V12H0.985916V15.9844C0.985916 16.5469 1.17371 17.0312 1.5493 17.4375C1.95618 17.8125 2.44131 18 3.00469 18H16.9953C17.5587 18 18.0282 17.8125 18.4038 17.4375C18.8106 17.0312 19.0141 16.5469 19.0141 15.9844V12H12.0188V12.9844H7.98122ZM18.0282 3.98438H13.9906V2.01562L12.0188 0H7.98122L6.00939 2.01562V3.98438H1.97183C1.43975 3.98438 0.970266 4.1875 0.56338 4.59375C0.187793 4.96875 0 5.4375 0 6V9C0 9.5625 0.187793 10.0469 0.56338 10.4531C0.970266 10.8281 1.43975 11.0156 1.97183 11.0156H7.98122V9H12.0188V11.0156H18.0282C18.5603 11.0156 19.0141 10.8281 19.3897 10.4531C19.7966 10.0469 20 9.5625 20 9V6C20 5.4375 19.7966 4.96875 19.3897 4.59375C19.0141 4.1875 18.5603 3.98438 18.0282 3.98438ZM12.0188 3.98438H7.98122V2.01562H12.0188V3.98438Z" fill="var(--fill-0, #146DA6)"/>
</svg>
