<svg preserveAspectRatio="none" width="100%" height="100%" overflow="visible" style="display: block;" viewBox="0 0 18 23" fill="none" xmlns="http://www.w3.org/2000/svg">
<path id="office" d="M0 0V22.4H7.55973V18.025H8V11.4C8 10.8477 8.44772 10.4 9 10.4H17.6V0H0ZM2.48054 2.50833H5.02013V4.95833H2.48054V2.50833ZM7.55973 2.50833H10.0403V4.95833H7.55973V2.50833ZM12.5799 2.50833H15.1195V4.95833H12.5799V2.50833ZM2.48054 7.46667H5.02013V9.975H2.48054V7.46667ZM7.55973 7.46667H10.0403V9.975H7.55973V7.46667ZM12.5799 7.46667H15.1195V9.975H12.5799V7.46667ZM2.48054 12.425H5.02013V14.9333H2.48054V12.425ZM7.55973 12.425H8V14.9333H7.55973V12.425ZM2.48054 17.4417H5.02013V19.8917H2.48054V17.4417Z" fill="var(--fill-0, #50CEE1)"/>
</svg>
