<svg preserveAspectRatio="none" width="100%" height="100%" overflow="visible" style="display: block;" viewBox="0 0 16 14" fill="none" xmlns="http://www.w3.org/2000/svg">
<path id="megaphone" opacity="0.6" d="M8 3.2H1.6C1.17565 3.2 0.768687 3.36857 0.468629 3.66863C0.168571 3.96869 0 4.37565 0 4.8V8C0 8.42435 0.168571 8.83131 0.468629 9.13137C0.768687 9.43143 1.17565 9.6 1.6 9.6H2.4V12.8C2.4 13.0122 2.48429 13.2157 2.63431 13.3657C2.78434 13.5157 2.98783 13.6 3.2 13.6H4.8C5.01217 13.6 5.21566 13.5157 5.36569 13.3657C5.51571 13.2157 5.6 13.0122 5.6 12.8V9.6H8L12 12.8V0L8 3.2ZM16 6.4C16 7.768 14.832 9.008 13.6 9.6V3.2C14.824 3.8 16 5.04 16 6.4Z" fill="var(--fill-0, #146DA6)"/>
</svg>
