<svg preserveAspectRatio="none" width="100%" height="100%" overflow="visible" style="display: block;" viewBox="0 0 12 12" fill="none" xmlns="http://www.w3.org/2000/svg">
<path id="Chart" opacity="0.6" d="M9.94583 0C10.2958 0 10.5875 0.126389 10.8208 0.379167C11.0736 0.6125 11.2 0.904167 11.2 1.25417V9.94583C11.2 10.2958 11.0736 10.5972 10.8208 10.85C10.5875 11.0833 10.2958 11.2 9.94583 11.2H1.25417C0.904167 11.2 0.602778 11.0833 0.35 10.85C0.116667 10.5972 0 10.2958 0 9.94583V1.25417C0 0.904167 0.116667 0.6125 0.35 0.379167C0.602778 0.126389 0.904167 0 1.25417 0H9.94583ZM3.73333 8.72083V4.34583H2.47917V8.72083H3.73333ZM6.2125 8.72083V2.47917H4.9875V8.72083H6.2125ZM8.72083 8.72083V6.2125H7.46667V8.72083H8.72083Z" fill="var(--fill-0, #146DA6)"/>
</svg>
