<svg preserveAspectRatio="none" width="100%" height="100%" overflow="visible" style="display: block;" viewBox="0 0 18 28" fill="none" xmlns="http://www.w3.org/2000/svg">
<path id="Big avatar" d="M9 17C10.6403 17 12.1296 17.3418 13.4678 18.0254C14.849 18.709 15.9494 19.6415 16.7695 20.8223C17.5897 21.9409 18 23.1529 18 24.458V28H0V24.458C0 23.1529 0.41034 21.9409 1.23047 20.8223C2.05061 19.6415 3.12964 18.709 4.46777 18.0254C5.84903 17.3418 7.35976 17 9 17ZM9 0C10.9289 0 12.5774 0.684822 13.9463 2.05371C15.3152 3.4226 16 5.07111 16 7C16 8.92889 15.3152 10.5774 13.9463 11.9463C12.5774 13.3152 10.9289 14 9 14C7.07111 14 5.4226 13.3152 4.05371 11.9463C2.68482 10.5774 2 8.92889 2 7C2 5.07111 2.68482 3.4226 4.05371 2.05371C5.4226 0.684822 7.07111 1.12802e-07 9 0Z" fill="var(--fill-0, #50CEE1)"/>
</svg>
