<svg preserveAspectRatio="none" width="100%" height="100%" overflow="visible" style="display: block;" viewBox="0 0 26 23" fill="none" xmlns="http://www.w3.org/2000/svg">
<g id="App icon">
<path id="&#243;&#176;&#131;&#150;" opacity="0.6" d="M15.5042 6.4H18.8958C19.3427 6.4 19.7239 6.57119 20.0394 6.91358C20.3812 7.22963 20.5521 7.61152 20.5521 8.05926V9.75802H23.9437C24.3906 9.75802 24.7718 9.92922 25.0873 10.2716C25.4291 10.5877 25.6 10.9827 25.6 11.4568V20.7012C25.6 21.1753 25.4291 21.5835 25.0873 21.9259C24.7718 22.242 24.3906 22.4 23.9437 22.4H10.4563C10.0094 22.4 9.61502 22.242 9.27324 21.9259C8.95775 21.5835 8.8 21.1753 8.8 20.7012V11.4568C8.8 10.9827 8.95775 10.5877 9.27324 10.2716C9.61502 9.92922 10.0094 9.75802 10.4563 9.75802H13.8479V8.05926C13.8479 7.61152 14.0056 7.22963 14.3211 6.91358C14.6629 6.57119 15.0573 6.4 15.5042 6.4ZM18.8958 9.75802V8.05926H15.5042V9.75802H18.8958Z" fill="var(--fill-0, #146DA6)"/>
<path id="Subtract" d="M0 13.708C0 14.6024 0.448113 15.439 1.34473 16.2168C2.24141 16.9557 3.45024 17.5587 4.9707 18.0254C5.68887 18.2224 6.43242 18.3703 7.2002 18.4766V21.9619C7.20021 22.0471 7.20537 22.1303 7.21387 22.2119C6.44123 22.1055 5.69314 21.957 4.9707 21.7588C3.45024 21.2921 2.24141 20.6891 1.34473 19.9502C0.448091 19.1724 0 18.3358 0 17.4414V13.708ZM0 7.4668C4.32966e-05 8.36107 0.448328 9.19696 1.34473 9.97461C2.2414 10.7135 3.45028 11.3165 4.9707 11.7832C5.68891 11.9802 6.43238 12.1291 7.2002 12.2354V15.9688C6.43237 15.8625 5.68891 15.7136 4.9707 15.5166C3.45027 15.0499 2.2414 14.4469 1.34473 13.708C0.448328 12.9304 6.5199e-05 12.0945 0 11.2002V7.4668ZM10 0C11.7934 0 13.4502 0.233529 14.9707 0.700195C16.5302 1.12797 17.7586 1.73101 18.6553 2.50879C19.5237 3.22455 19.97 4.03147 19.9971 4.92969C19.7857 4.84466 19.5584 4.7998 19.3145 4.7998H14.4004C13.8642 4.7998 13.3906 5.00531 12.9805 5.41602C12.6019 5.79525 12.4121 6.25377 12.4121 6.79102V8.83008H9.1875C8.65121 8.83011 8.17769 9.03545 7.76758 9.44629C7.65169 9.56244 7.555 9.68834 7.47461 9.82227C6.60902 9.71542 5.77419 9.55341 4.9707 9.33301C3.45031 8.86635 2.24138 8.26425 1.34473 7.52539C0.44804 6.74761 0 5.91105 0 5.0166C2.09104e-05 4.08343 0.448331 3.24758 1.34473 2.50879C2.24139 1.73103 3.45028 1.12797 4.9707 0.700195C6.53016 0.233529 8.20663 1.29252e-08 10 0Z" fill="var(--fill-0, #50CEE1)"/>
</g>
</svg>
