<svg preserveAspectRatio="none" width="100%" height="100%" overflow="visible" style="display: block;" viewBox="0 0 18 23" fill="none" xmlns="http://www.w3.org/2000/svg">
<path id="Office icon" d="M17.5996 0V4.7998H15.1191V2.50879H12.5801V4.95801H13.6797C13.4463 5.06068 13.228 5.21308 13.0254 5.41602C12.6468 5.79525 12.4571 6.25377 12.457 6.79102V8.0293H10.04V7.4668H7.55957V8.89355C7.32091 9.22569 7.2002 9.61668 7.2002 10.0684V21.9619C7.20022 22.1137 7.21421 22.2598 7.24121 22.4004H0V0H17.5996ZM2.48047 17.4414V19.8916H5.02051V17.4414H2.48047ZM2.48047 12.4248V14.9336H5.02051V12.4248H2.48047ZM2.48047 7.4668V9.97461H5.02051V7.4668H2.48047ZM2.48047 2.50879V4.95801H5.02051V2.50879H2.48047ZM7.55957 2.50879V4.95801H10.04V2.50879H7.55957Z" fill="var(--fill-0, #50CEE1)"/>
</svg>
