<svg preserveAspectRatio="none" width="100%" height="100%" overflow="visible" style="display: block;" viewBox="0 0 24 24" fill="none" xmlns="http://www.w3.org/2000/svg">
<g id="without padding">
<path id="Vector 10" d="M8.65105 21.4116H0L7.41996 8.41208C7.46262 8.33568 7.50626 8.25922 7.55089 8.18271L7.41996 8.41208C4.20524 14.1701 6.55607 19.6074 8.65105 21.4116Z" fill="url(#paint0_linear_99_53788)"/>
<path id="Vector 11" d="M15.2666 21.4125C13.9793 15.733 12.4653 13.7306 11.9176 13.5172C16.516 12.9431 21.9192 18.5934 24 21.4125L15.2666 21.4125Z" fill="url(#paint1_linear_99_53788)"/>
<g id="Vector 12">
<path d="M7.54604 8.19242C7.54604 8.19242 9.52827 4.48726 10.1486 3.65831C11.9651 1.23108 14.7471 4.98498 16.2396 7.62381L18.9063 12.3386C18.7734 12.2423 18.6231 12.153 18.4579 12.0724C17.3238 11.5193 15.4825 11.3784 13.6863 12.2583C13.1039 12.5488 12.5076 12.9571 11.9163 13.5172C10.3973 14.9961 9.12204 17.4762 8.6462 21.4071C4.0125 17.4 5.95638 10.6562 7.54604 8.19242Z" fill="url(#paint2_linear_99_53788)"/>
<path d="M18.4579 12.0724C17.5751 11.664 15.7156 11.246 13.6863 12.2583C15.4825 11.3784 17.3238 11.5193 18.4579 12.0724Z" fill="url(#paint3_linear_99_53788)"/>
</g>
<path id="Vector 13" d="M24 21.4125L18.9125 12.3385C18.3309 11.8439 15.0553 10.5494 11.9225 13.5172C16.7496 13.1719 21.9693 18.6969 24 21.4125Z" fill="url(#paint4_linear_99_53788)"/>
</g>
<defs>
<linearGradient id="paint0_linear_99_53788" x1="3.81422" y1="25.9848" x2="5.42995" y2="8.17831" gradientUnits="userSpaceOnUse">
<stop stop-color="#B56ECF"/>
<stop offset="1" stop-color="#593CB4"/>
</linearGradient>
<linearGradient id="paint1_linear_99_53788" x1="13.1147" y1="13.4736" x2="19.0419" y2="22.5532" gradientUnits="userSpaceOnUse">
<stop stop-color="#3A2AAB"/>
<stop offset="1" stop-color="#AE6ACD"/>
</linearGradient>
<linearGradient id="paint2_linear_99_53788" x1="12.358" y1="2.73722" x2="7.36138" y2="21.4056" gradientUnits="userSpaceOnUse">
<stop stop-color="#7024D7"/>
<stop offset="0.36529" stop-color="#983EAA"/>
<stop offset="1" stop-color="#C95E75"/>
</linearGradient>
<linearGradient id="paint3_linear_99_53788" x1="12.358" y1="2.73722" x2="7.36138" y2="21.4056" gradientUnits="userSpaceOnUse">
<stop stop-color="#7024D7"/>
<stop offset="0.36529" stop-color="#983EAA"/>
<stop offset="1" stop-color="#C95E75"/>
</linearGradient>
<linearGradient id="paint4_linear_99_53788" x1="14.8449" y1="11.3253" x2="24.6928" y2="19.5345" gradientUnits="userSpaceOnUse">
<stop stop-color="#382AAA"/>
<stop offset="0.670424" stop-color="#9C60C7"/>
</linearGradient>
</defs>
</svg>
