<svg preserveAspectRatio="none" width="100%" height="100%" overflow="visible" style="display: block;" viewBox="0 0 20 20" fill="none" xmlns="http://www.w3.org/2000/svg">
<g id="Copilot symbol">
<path d="M14.9099 17.6018L14.6775 14.6306L10.718 14.3214C8.40334 14.1395 6.70281 13.4155 5.92973 12.2825C4.65333 10.403 4.85305 7.91317 6.40552 6.36189L2.81206 2.80445C-0.469056 6.0843 -0.936679 11.2492 1.71427 15.1493L1.71542 15.1504L1.71657 15.1521C2.89139 16.8744 5.33687 19.0097 10.3197 19.4015L17.2406 19.9425C16.0153 19.8421 15.0092 18.8663 14.9099 17.6018Z" fill="#1A212E"/>
<path d="M19.9837 17.187C19.9854 17.2054 19.9917 17.2226 19.9929 17.241L19.452 10.3214C19.0602 5.34004 16.9253 2.89525 15.2034 1.72076L15.2017 1.71961L15.2005 1.71847C11.3013 -0.932303 6.0907 -0.475161 2.81206 2.80445L6.38753 6.3792C7.93909 4.82718 10.4552 4.65669 12.3343 5.93273C13.4666 6.70558 14.1904 8.40563 14.3723 10.7196L14.9137 17.65C15.0239 19.0535 16.2496 20.1017 17.6521 19.9921C18.2824 19.9428 18.8405 19.668 19.2547 19.2531C19.6694 18.8389 19.9441 18.2806 19.9934 17.65C20.0061 17.4928 19.9992 17.3385 19.9837 17.187Z" fill="#1A212E"/>
</g>
</svg>
