<svg preserveAspectRatio="none" width="100%" height="100%" overflow="visible" style="display: block;" viewBox="0 0 26 16" fill="none" xmlns="http://www.w3.org/2000/svg">
<path id="Small avatars" opacity="0.6" d="M5.44727 9.60645C4.91392 10.0704 4.44381 10.5952 4.03711 11.1807C3.21239 12.3056 2.79993 13.5246 2.7998 14.8369V16H0V13.9395C0 13.1801 0.237077 12.4741 0.710938 11.8232C1.18475 11.1364 1.80809 10.5939 2.58105 10.1963C3.37914 9.79855 4.25247 9.59961 5.2002 9.59961C5.28325 9.59961 5.36555 9.60339 5.44727 9.60645ZM20.4004 9.59961C21.348 9.59966 22.2084 9.79861 22.9814 10.1963C23.7795 10.594 24.4158 11.1363 24.8896 11.8232C25.3635 12.4741 25.5996 13.1801 25.5996 13.9395V16H20.9033V14.8369C20.9032 13.5246 20.4907 12.3055 19.666 11.1807C19.3384 10.709 18.9655 10.2775 18.5488 9.88477C19.1308 9.69604 19.7476 9.59961 20.4004 9.59961ZM4.84082 0.000976562C4.82368 0.210374 4.81447 0.42324 4.81445 0.639648C4.81445 2.57946 5.50236 4.23855 6.87891 5.61523C7.21187 5.94818 7.56177 6.24084 7.92773 6.49316C7.83464 6.60731 7.73498 6.71912 7.62695 6.82715C6.84475 7.60931 5.90198 8 4.7998 8C3.69785 7.99995 2.75573 7.60906 1.97363 6.82715C1.19141 6.04493 0.799805 5.10222 0.799805 4C0.799805 2.89778 1.19141 1.95507 1.97363 1.17285C2.75573 0.390936 3.69785 4.63085e-05 4.7998 0C4.8135 0 4.82717 0.000855854 4.84082 0.000976562ZM20 0C21.1022 0 22.0449 0.390629 22.8271 1.17285C23.6094 1.95507 24 2.89778 24 4C24 5.10222 23.6094 6.04493 22.8271 6.82715C22.0449 7.60937 21.1022 8 20 8C18.8978 8 17.9551 7.60937 17.1729 6.82715C16.8956 6.54989 16.6682 6.25211 16.4893 5.93457C16.6041 5.8324 16.7179 5.72641 16.8291 5.61523C18.2058 4.23852 18.8945 2.57955 18.8945 0.639648C18.8945 0.474462 18.887 0.311491 18.877 0.150391C19.2308 0.0500981 19.6052 4.0407e-08 20 0Z" fill="var(--fill-0, #146DA6)"/>
</svg>
