<svg preserveAspectRatio="none" width="100%" height="100%" overflow="visible" style="display: block;" viewBox="0 0 32 28" fill="none" xmlns="http://www.w3.org/2000/svg">
<g id="App icon">
<path id="&#243;&#176;&#128;&#132;" d="M14 0C15.9103 0 17.5478 0.682261 18.9123 2.04678C20.2768 3.41131 20.9591 4.53533 20.9591 6.50024C18.501 7.12524 17.876 7.66594 16.626 9.00024C15.376 10.8752 15.376 12.1252 15.376 14.0002C13.4656 14.0002 10.4522 13.3177 9.08772 11.9532C7.7232 10.5887 7.04094 8.95127 7.04094 7.04094C7.04094 5.07602 7.7232 3.41131 9.08772 2.04678C10.4522 0.682261 12.0897 0 14 0ZM14 17.5205C16.001 17.7502 16.3723 17.848 18.501 18.5029C17.9179 19.0002 14 20.2502 12.251 21.5002C11.001 22.1252 10.376 23.2242 10.376 24.4795V28H0V24.4795C0 23.2242 0.62768 22.078 1.88304 21.0409C3.1384 19.9493 4.83041 19.1033 6.95906 18.5029C9.1423 17.848 11.4893 17.5205 14 17.5205Z" fill="var(--fill-0, #50CEE1)"/>
<path id="&#243;&#176;&#128;&#132;_2" opacity="0.6" d="M22 8C23.3645 8 24.5341 8.48733 25.5088 9.46199C26.4834 10.4366 26.9708 11.6257 26.9708 13.0292C26.9708 14.3938 26.4834 15.5634 25.5088 16.538C24.5341 17.5127 23.3645 18 22 18C20.6355 18 19.4659 17.5127 18.4912 16.538C17.5166 15.5634 17.0292 14.3938 17.0292 13.0292C17.0292 11.6257 17.5166 10.4366 18.4912 9.46199C19.4659 8.48733 20.6355 8 22 8ZM22 20.5146C23.7934 20.5146 25.4503 20.7485 26.9708 21.2164C28.5302 21.6452 29.7583 22.2495 30.655 23.0292C31.5517 23.77 32 24.5887 32 25.4854V28H12V25.4854C12 24.5887 12.4483 23.77 13.345 23.0292C14.2417 22.2495 15.4503 21.6452 16.9708 21.2164C18.5302 20.7485 20.2066 20.5146 22 20.5146Z" fill="var(--fill-0, #146DA6)"/>
</g>
</svg>
