<svg preserveAspectRatio="none" width="100%" height="100%" overflow="visible" style="display: block;" viewBox="0 0 23 23" fill="none" xmlns="http://www.w3.org/2000/svg">
<path id="Subtract" d="M11.209 14.0166C11.203 14.1436 11.2002 14.2719 11.2002 14.4004C11.2004 18.8185 14.782 22.4004 19.2002 22.4004H0V19.584C0 18.5797 0.502547 17.6626 1.50684 16.833C2.51111 15.9598 3.86452 15.283 5.56738 14.8027C7.31397 14.2788 9.19162 14.0166 11.2002 14.0166C11.2031 14.0166 11.2061 14.0166 11.209 14.0166ZM22.4004 22.4004H19.2002C20.3384 22.4004 21.4201 22.16 22.4004 21.7314V22.4004ZM11.2002 0C12.7284 4.64615e-05 14.0383 0.546124 15.1299 1.6377C16.2214 2.72928 16.7676 4.06096 16.7676 5.63281C16.7676 6.04388 16.7264 6.43888 16.6475 6.81836C14.5172 7.53527 12.7893 9.12323 11.8857 11.1602C11.6623 11.1857 11.4339 11.2002 11.2002 11.2002C9.67199 11.2002 8.3621 10.654 7.27051 9.5625C6.1789 8.4709 5.63283 7.16105 5.63281 5.63281C5.63281 4.06088 6.17889 2.72931 7.27051 1.6377C8.36212 0.546098 9.67194 0 11.2002 0Z" fill="var(--fill-0, #50CEE1)"/>
</svg>
