<svg preserveAspectRatio="none" width="100%" height="100%" overflow="visible" style="display: block;" viewBox="0 0 22 28" fill="none" xmlns="http://www.w3.org/2000/svg">
<path id="Office icon" d="M22 0V6H18.8994V3.13574H15.7246V6.19824H17.0977C16.8065 6.32661 16.534 6.51729 16.2812 6.77051C15.8082 7.24453 15.5723 7.81779 15.5723 8.48926V10.0371H12.5508V9.33301H9.44922V11.1182C9.15138 11.5331 9.00004 12.0209 9 12.585V27.4521C9.00002 27.6419 9.01805 27.8243 9.05176 28H0V0H22ZM3.10059 21.8018V24.8643H6.27539V21.8018H3.10059ZM3.10059 15.5312V18.667H6.27539V15.5312H3.10059ZM3.10059 9.33301V12.4688H6.27539V9.33301H3.10059ZM3.10059 3.13574V6.19824H6.27539V3.13574H3.10059ZM9.44922 3.13574V6.19824H12.5508V3.13574H9.44922Z" fill="var(--fill-0, #50CEE1)"/>
</svg>
