<svg preserveAspectRatio="none" width="100%" height="100%" overflow="visible" style="display: block;" viewBox="0 0 16 15" fill="none" xmlns="http://www.w3.org/2000/svg">
<path id="Small briefcase" opacity="0.6" d="M6.38498 10.3875V9.6H0.788732V12.7875C0.788732 13.2375 0.938967 13.625 1.23944 13.95C1.56495 14.25 1.95305 14.4 2.40376 14.4H13.5962C14.0469 14.4 14.4225 14.25 14.723 13.95C15.0485 13.625 15.2113 13.2375 15.2113 12.7875V9.6H9.61502V10.3875H6.38498ZM14.4225 3.1875H11.1925V1.6125L9.61502 0H6.38498L4.80751 1.6125V3.1875H1.57746C1.1518 3.1875 0.776213 3.35 0.450704 3.675C0.150235 3.975 0 4.35 0 4.8V7.2C0 7.65 0.150235 8.0375 0.450704 8.3625C0.776213 8.6625 1.1518 8.8125 1.57746 8.8125H6.38498V7.2H9.61502V8.8125H14.4225C14.8482 8.8125 15.2113 8.6625 15.5117 8.3625C15.8372 8.0375 16 7.65 16 7.2V4.8C16 4.35 15.8372 3.975 15.5117 3.675C15.2113 3.35 14.8482 3.1875 14.4225 3.1875ZM9.61502 3.1875H6.38498V1.6125H9.61502V3.1875Z" fill="var(--fill-0, #146DA6)"/>
</svg>
