<svg preserveAspectRatio="none" width="100%" height="100%" overflow="visible" style="display: block;" viewBox="0 0 16 16" fill="none" xmlns="http://www.w3.org/2000/svg">
<path id="radar" opacity="0.6" d="M13.6714 2.32864C14.3975 3.07981 14.9609 3.94366 15.3615 4.92019C15.7872 5.89671 16 6.92332 16 8C16 9.05164 15.7997 10.0782 15.3991 11.0798C14.9984 12.0563 14.4225 12.9202 13.6714 13.6714C12.9202 14.4225 12.0438 14.9984 11.0423 15.3991C10.0657 15.7997 9.05164 16 8 16C6.94836 16 5.92175 15.7997 4.92019 15.3991C3.94366 14.9984 3.07981 14.4225 2.32864 13.6714C1.57746 12.9202 1.00156 12.0563 0.600939 11.0798C0.200313 10.0782 0 9.05164 0 8C0 6.94836 0.200313 5.93427 0.600939 4.95775C1.00156 3.95618 1.57746 3.07981 2.32864 2.32864C3.07981 1.57746 3.94366 1.00156 4.92019 0.600939C5.92175 0.200313 6.94836 0 8 0H8.78873V6.61033C9.03912 6.76056 9.23944 6.96088 9.38967 7.21127C9.53991 7.43662 9.61502 7.69953 9.61502 8C9.61502 8.4507 9.45227 8.83881 9.12676 9.16432C8.82629 9.46479 8.4507 9.61502 8 9.61502C7.5493 9.61502 7.16119 9.46479 6.83568 9.16432C6.53521 8.83881 6.38498 8.4507 6.38498 8C6.38498 7.69953 6.46009 7.43662 6.61033 7.21127C6.76056 6.96088 6.96088 6.76056 7.21127 6.61033V4.92019C6.51017 5.09546 5.93427 5.47105 5.48357 6.04695C5.03286 6.62285 4.80751 7.27387 4.80751 8C4.80751 8.87637 5.1205 9.62754 5.74648 10.2535C6.37246 10.8795 7.12363 11.1925 8 11.1925C8.87637 11.1925 9.62754 10.8795 10.2535 10.2535C10.8795 9.62754 11.1925 8.87637 11.1925 8C11.1925 7.12363 10.8795 6.37246 10.2535 5.74648L11.3803 4.61972C11.831 5.04538 12.1815 5.55869 12.4319 6.15962C12.6823 6.73552 12.8075 7.34898 12.8075 8C12.8075 8.87637 12.5947 9.69014 12.169 10.4413C11.7433 11.1674 11.1549 11.7433 10.4038 12.169C9.67762 12.5947 8.87637 12.8075 8 12.8075C7.12363 12.8075 6.30986 12.5947 5.55869 12.169C4.83255 11.7433 4.25665 11.1674 3.83099 10.4413C3.40532 9.69014 3.19249 8.87637 3.19249 8C3.19249 6.82316 3.56808 5.79656 4.31925 4.92019C5.09546 4.01878 6.05947 3.46792 7.21127 3.26761V1.65258C6.15962 1.77778 5.20814 2.14085 4.35681 2.74178C3.50548 3.34272 2.82942 4.10642 2.32864 5.03286C1.82786 5.93427 1.57746 6.92332 1.57746 8C1.57746 9.1518 1.86541 10.2285 2.44131 11.23C3.01721 12.2066 3.79343 12.9828 4.76995 13.5587C5.77152 14.1346 6.8482 14.4225 8 14.4225C9.1518 14.4225 10.216 14.1346 11.1925 13.5587C12.1941 12.9828 12.9828 12.2066 13.5587 11.23C14.1346 10.2285 14.4225 9.1518 14.4225 8C14.4225 7.12363 14.2473 6.29734 13.8967 5.52113C13.5712 4.74491 13.1205 4.05634 12.5446 3.4554L13.6714 2.32864Z" fill="var(--fill-0, #146DA6)"/>
</svg>
