<svg preserveAspectRatio="none" width="100%" height="100%" overflow="visible" style="display: block;" viewBox="0 0 17 16" fill="none" xmlns="http://www.w3.org/2000/svg">
<path id="briefcase" opacity="0.6" d="M6.70423 0H10.0958C10.5427 0 10.9239 0.171193 11.2394 0.51358C11.5812 0.82963 11.7521 1.21152 11.7521 1.65926V3.35802H15.1437C15.5906 3.35802 15.9718 3.52922 16.2873 3.87161C16.6291 4.18765 16.8 4.58272 16.8 5.05679V14.3012C16.8 14.7753 16.6291 15.1835 16.2873 15.5259C15.9718 15.842 15.5906 16 15.1437 16H1.65634C1.20939 16 0.815023 15.842 0.473239 15.5259C0.157746 15.1835 0 14.7753 0 14.3012V5.05679C0 4.58272 0.157746 4.18765 0.473239 3.87161C0.815023 3.52922 1.20939 3.35802 1.65634 3.35802H5.04789V1.65926C5.04789 1.21152 5.20563 0.82963 5.52113 0.51358C5.86291 0.171193 6.25728 0 6.70423 0ZM10.0958 3.35802V1.65926H6.70423V3.35802H10.0958Z" fill="var(--fill-0, #146DA6)"/>
</svg>
