<svg preserveAspectRatio="none" width="100%" height="100%" overflow="visible" style="display: block;" viewBox="0 0 32 32" fill="none" xmlns="http://www.w3.org/2000/svg">
<g id="Frame 1116606227">
<path id="Subtract" d="M14 19.5205C15.4676 19.5205 16.8699 19.6326 18.207 19.8564L16.7314 20.9961L18.8926 22.6729L16.7314 24.3398L24.0254 30H0V26.4795C1.33507e-05 25.2242 0.627582 24.078 1.88281 23.041C3.13816 21.9494 4.83037 21.1033 6.95898 20.5029C9.14222 19.848 11.4893 19.5205 14 19.5205ZM28 30H27.9746L28 29.9795V30ZM14 2C15.9103 2 17.5476 2.68238 18.9121 4.04688C20.2766 5.4114 20.959 7.0761 20.959 9.04102C20.959 10.9513 20.2766 12.5886 18.9121 13.9531C17.5476 15.3176 15.9103 16 14 16C12.0897 16 10.4524 15.3176 9.08789 13.9531C7.72339 12.5886 7.04103 10.9513 7.04102 9.04102C7.04102 7.0761 7.72337 5.4114 9.08789 4.04688C10.4524 2.68238 12.0897 2 14 2Z" fill="var(--fill-0, #50CEE1)"/>
<path id="&#243;&#176;&#189;&#152;" opacity="0.6" d="M26 13L32 17.6562L26 22.3438L20 17.6562L26 13ZM30.9062 20.1562L32 21L26 25.6562L20 21L21.0938 20.1562L26 23.9688L30.9062 20.1562ZM30.9062 23.5L32 24.3438L26 29L20 24.3438L21.0938 23.5L26 27.3125L30.9062 23.5Z" fill="var(--fill-0, #146DA6)"/>
</g>
</svg>
