<svg preserveAspectRatio="none" width="100%" height="100%" overflow="visible" style="display: block;" viewBox="0 0 14 14" fill="none" xmlns="http://www.w3.org/2000/svg">
<path id="Chart" opacity="0.6" d="M12.4323 0C12.8698 0 13.2344 0.157986 13.526 0.473958C13.842 0.765625 14 1.13021 14 1.56771V12.4323C14 12.8698 13.842 13.2465 13.526 13.5625C13.2344 13.8542 12.8698 14 12.4323 14H1.56771C1.13021 14 0.753472 13.8542 0.4375 13.5625C0.145833 13.2465 0 12.8698 0 12.4323V1.56771C0 1.13021 0.145833 0.765625 0.4375 0.473958C0.753472 0.157986 1.13021 0 1.56771 0H12.4323ZM4.66667 10.901V5.43229H3.09896V10.901H4.66667ZM7.76562 10.901V3.09896H6.23438V10.901H7.76562ZM10.901 10.901V7.76562H9.33333V10.901H10.901Z" fill="var(--fill-0, #146DA6)"/>
</svg>
