<svg preserveAspectRatio="none" width="100%" height="100%" overflow="visible" style="display: block;" viewBox="0 0 16 16" fill="none" xmlns="http://www.w3.org/2000/svg">
<g id="without padding">
<path id="Vector 10" d="M5.76737 14.2744H0L4.94664 5.60805C4.97508 5.55712 5.00417 5.50615 5.03393 5.45514L4.94664 5.60805C2.80349 9.44673 4.37071 13.0716 5.76737 14.2744Z" fill="url(#paint0_linear_99_53614)"/>
<path id="Vector 11" d="M10.1777 14.275C9.31955 10.4887 8.31018 9.15373 7.94507 9.01148C11.0107 8.62871 14.6128 12.3956 16 14.275L10.1777 14.275Z" fill="url(#paint1_linear_99_53614)"/>
<g id="Vector 12">
<path d="M5.0307 5.46161C5.0307 5.46161 6.35218 2.99151 6.76575 2.43887C7.97672 0.820721 9.83142 3.32332 10.8264 5.08254L12.6042 8.22571C12.5156 8.16156 12.4154 8.10198 12.3053 8.04825C11.5492 7.67951 10.3217 7.5856 9.12421 8.1722C8.73596 8.36586 8.33838 8.63806 7.94419 9.01148C6.93151 9.99738 6.08136 11.6508 5.76414 14.2714C2.675 11.6 3.97092 7.1041 5.0307 5.46161Z" fill="url(#paint2_linear_99_53614)"/>
<path d="M12.3053 8.04825C11.7167 7.77602 10.4771 7.49736 9.12421 8.1722C10.3217 7.5856 11.5492 7.67951 12.3053 8.04825Z" fill="url(#paint3_linear_99_53614)"/>
</g>
<path id="Vector 13" d="M16 14.275L12.6083 8.2257C12.2206 7.89595 10.0369 7.03296 7.9483 9.01148C11.1664 8.7813 14.6462 12.4646 16 14.275Z" fill="url(#paint4_linear_99_53614)"/>
</g>
<defs>
<linearGradient id="paint0_linear_99_53614" x1="2.54281" y1="17.3232" x2="3.61996" y2="5.45221" gradientUnits="userSpaceOnUse">
<stop stop-color="#B56ECF"/>
<stop offset="1" stop-color="#593CB4"/>
</linearGradient>
<linearGradient id="paint1_linear_99_53614" x1="8.74313" y1="8.98239" x2="12.6946" y2="15.0355" gradientUnits="userSpaceOnUse">
<stop stop-color="#3A2AAB"/>
<stop offset="1" stop-color="#AE6ACD"/>
</linearGradient>
<linearGradient id="paint2_linear_99_53614" x1="8.23866" y1="1.82481" x2="4.90759" y2="14.2704" gradientUnits="userSpaceOnUse">
<stop stop-color="#7024D7"/>
<stop offset="0.36529" stop-color="#983EAA"/>
<stop offset="1" stop-color="#C95E75"/>
</linearGradient>
<linearGradient id="paint3_linear_99_53614" x1="8.23866" y1="1.82481" x2="4.90759" y2="14.2704" gradientUnits="userSpaceOnUse">
<stop stop-color="#7024D7"/>
<stop offset="0.36529" stop-color="#983EAA"/>
<stop offset="1" stop-color="#C95E75"/>
</linearGradient>
<linearGradient id="paint4_linear_99_53614" x1="9.89661" y1="7.55023" x2="16.4619" y2="13.023" gradientUnits="userSpaceOnUse">
<stop stop-color="#382AAA"/>
<stop offset="0.670424" stop-color="#9C60C7"/>
</linearGradient>
</defs>
</svg>
