<svg preserveAspectRatio="none" width="100%" height="100%" overflow="visible" style="display: block;" viewBox="0 0 28 28" fill="none" xmlns="http://www.w3.org/2000/svg">
<path id="Subtract" d="M12.0264 19.3828V25.3916L16.8174 28H0V24.4795C1.33507e-05 23.2242 0.627582 22.078 1.88281 21.041C3.13816 19.9494 4.83037 19.1033 6.95898 18.5029C7.73793 18.2692 8.53777 18.0771 9.3584 17.9268L12.0264 19.3828ZM28 28H25.1846L28 26.4668V28ZM27.9756 24.0654V24.2031L21 27.999L27.9746 24.2031V24.0557C27.975 24.0589 27.9752 24.0622 27.9756 24.0654ZM14 0C15.9103 0 17.5476 0.682379 18.9121 2.04688C20.2766 3.4114 20.959 5.0761 20.959 7.04102C20.959 7.28612 20.9463 7.52658 20.9238 7.7627L10.8506 13.2578C10.22 12.9307 9.6318 12.497 9.08789 11.9531C7.72339 10.5886 7.04103 8.95131 7.04102 7.04102C7.04102 5.0761 7.72337 3.4114 9.08789 2.04688C10.4524 0.682379 12.0897 0 14 0Z" fill="var(--fill-0, #50CEE1)"/>
</svg>
