<svg preserveAspectRatio="none" width="100%" height="100%" overflow="visible" style="display: block;" viewBox="0 0 240 240" fill="none" xmlns="http://www.w3.org/2000/svg">
<path id="Mark" d="M157.563 133.43H132.913V173.31C132.965 190.664 126.232 207.351 114.152 219.81C102.072 232.27 85.6008 239.515 68.2535 240C64.7372 239.981 61.3682 238.585 58.8682 236.113C56.3683 233.64 54.9361 230.286 54.8786 226.77C54.8211 223.254 56.1427 219.856 58.5605 217.302C60.9782 214.749 64.2997 213.244 67.8135 213.11H68.6635C78.8155 212.52 88.3572 208.068 95.3318 200.668C102.306 193.268 106.185 183.479 106.173 173.31V133.43H96.2435C92.7411 133.334 89.4143 131.876 86.9708 129.365C84.5274 126.854 83.1602 123.489 83.1602 119.985C83.1602 116.481 84.5274 113.116 86.9708 110.605C89.4143 108.094 92.7411 106.636 96.2435 106.54H106.173V66.71C106.124 49.3085 112.893 32.5801 125.03 20.1101C137.168 7.64011 153.707 0.420976 171.103 0C174.632 0.134095 177.965 1.65007 180.386 4.22073C182.806 6.79139 184.118 10.2106 184.039 13.7403C183.961 17.2701 182.497 20.6273 179.965 23.0875C177.432 25.5476 174.034 26.9134 170.503 26.89C160.33 27.4509 150.76 31.8938 143.766 39.3026C136.772 46.7115 132.888 56.5215 132.913 66.71V106.58H157.563C161.131 106.58 164.552 107.997 167.074 110.519C169.596 113.042 171.013 116.463 171.013 120.03C171.013 123.597 169.596 127.018 167.074 129.541C164.552 132.063 161.131 133.48 157.563 133.48V133.43ZM50.9935 226.58C50.9918 223.809 51.6406 221.076 52.8877 218.601C54.1347 216.126 55.9452 213.978 58.1735 212.33C48.5777 210.234 40.0918 204.673 34.3397 196.712C28.5876 188.75 25.9734 178.947 26.9973 169.179C28.0212 159.41 32.6113 150.362 39.8892 143.767C47.1671 137.171 56.6217 133.491 66.4435 133.43H85.4435C83.5102 131.764 81.959 129.7 80.8957 127.38C79.8324 125.06 79.282 122.537 79.282 119.985C79.282 117.433 79.8324 114.91 80.8957 112.59C81.959 110.27 83.5102 108.206 85.4435 106.54H66.4435C49.6704 106.62 33.5418 113.01 21.2661 124.44C8.99046 135.871 1.46724 151.503 0.19303 168.228C-1.08118 184.953 3.98699 201.544 14.3894 214.702C24.7918 227.86 39.766 236.62 56.3335 239.24C54.6463 237.591 53.3049 235.622 52.388 233.448C51.4711 231.274 50.997 228.939 50.9935 226.58ZM182.753 0.75C184.576 2.54737 185.989 4.71763 186.895 7.11204C187.801 9.50645 188.179 12.0684 188.002 14.6224C187.826 17.1763 187.099 19.6619 185.872 21.9088C184.645 24.1557 182.947 26.1107 180.893 27.64C190.551 29.6782 199.11 35.2236 204.918 43.2047C210.725 51.1858 213.368 61.0361 212.336 70.8523C211.303 80.6684 206.67 89.7536 199.329 96.3524C191.989 102.951 182.464 106.595 172.593 106.58H168.333C170.264 108.249 171.813 110.314 172.874 112.635C173.935 114.956 174.485 117.478 174.485 120.03C174.485 122.582 173.935 125.104 172.874 127.425C171.813 129.746 170.264 131.811 168.333 133.48H172.593C183.574 133.428 194.373 130.667 204.031 125.443C213.69 120.218 221.911 112.692 227.965 103.531C234.019 94.3691 237.719 83.8555 238.737 72.9218C239.756 61.9881 238.061 50.972 233.803 40.85C229.448 30.3484 222.465 21.1438 213.525 14.1211C204.584 7.09844 193.988 2.49383 182.753 0.75Z" fill="url(#paint0_linear_99_53353)"/>
<defs>
<linearGradient id="paint0_linear_99_53353" x1="0.0233416" y1="240.033" x2="239.086" y2="240.033" gradientUnits="userSpaceOnUse">
<stop stop-color="#3186C8"/>
<stop offset="0.18" stop-color="#269FCA"/>
<stop offset="0.38" stop-color="#1DB4CC"/>
<stop offset="0.5" stop-color="#1ABBCD"/>
<stop offset="1" stop-color="#6FC6AA"/>
</linearGradient>
</defs>
</svg>
