<svg preserveAspectRatio="none" width="100%" height="100%" overflow="visible" style="display: block;" viewBox="0 0 31 32" fill="none" xmlns="http://www.w3.org/2000/svg">
<g id="Frame 1116606226">
<path id="&#243;&#177;&#129;&#156;" d="M14.8571 9.14286C16.5238 9.14286 17.9286 9.71429 19.0714 10.8571C20.2619 12 20.881 13.381 20.9286 15L13.6429 21.2143C12.2143 20.9286 11.0476 20.2143 10.1429 19.0714C9.2381 17.9286 8.78571 16.6429 8.78571 15.2143C8.78571 13.5476 9.38095 12.119 10.5714 10.9286C11.7619 9.73809 13.1905 9.14286 14.8571 9.14286ZM14.8571 18.2857C15.7143 18.2857 16.4286 18 17 17.4286C17.619 16.8095 17.9286 16.0714 17.9286 15.2143C17.9286 14.3571 17.619 13.6429 17 13.0714C16.4286 12.4524 15.7143 12.1429 14.8571 12.1429C14 12.1429 13.2619 12.4524 12.6429 13.0714C12.0714 13.6429 11.7857 14.3571 11.7857 15.2143C11.7857 16.0714 12.0714 16.8095 12.6429 17.4286C13.2619 18 14 18.2857 14.8571 18.2857ZM29.5714 10.2143C29.6667 10.4048 29.6905 10.5952 29.6429 10.7857C29.5952 10.9762 29.5 11.119 29.3571 11.2143L26.1429 13.7143H23.0714C23.0238 13.2857 22.9286 12.881 22.7857 12.5L25.9286 10.1429L24.7857 8.21429L21.1429 9.71429C19.9048 8.28571 18.381 7.38095 16.5714 7L16 3H13.7143L13.0714 6.92857C11.2619 7.30952 9.7381 8.21429 8.5 9.64286L4.85714 8.14286L3.71429 10.1429L6.92857 12.5C6.30952 14.3095 6.30952 16.119 6.92857 17.9286L3.78571 20.3571L4.92857 22.3571L8.64286 20.8571C9.45238 21.8095 10.4524 22.5238 11.6429 23L9.14286 25.1429C8.76191 24.9048 8.38095 24.6429 8 24.3571L4.21429 25.8571C3.97619 25.9524 3.7619 25.9762 3.57143 25.9286C3.38095 25.8333 3.2619 25.6905 3.21429 25.5L0.142857 20.2143C0.047619 20.0238 0 19.8333 0 19.6429C0.0476191 19.4524 0.142857 19.3095 0.285714 19.2143L3.5 16.7143L3.42857 15.2143L3.5 13.7143L0.357143 11.2143C0.214286 11.0714 0.119048 10.9286 0.0714286 10.7857C0.0714286 10.5952 0.119048 10.4048 0.214286 10.2143L3.28571 4.92857C3.33333 4.78571 3.45238 4.69048 3.64286 4.64286C3.83333 4.54762 4.02381 4.54762 4.21429 4.64286L7.92857 6.14286C8.7381 5.52381 9.59524 5.02381 10.5 4.64286L11.0714 0.642857C11.0714 0.452381 11.1429 0.309524 11.2857 0.214286C11.4286 0.0714286 11.5952 0 11.7857 0H17.9286C18.119 0 18.2857 0.0714286 18.4286 0.214286C18.5714 0.309524 18.6429 0.452381 18.6429 0.642857L19.2143 4.64286C20.1667 5.02381 21.0238 5.52381 21.7857 6.14286L25.5714 4.64286C25.7619 4.54762 25.9524 4.54762 26.1429 4.64286C26.3333 4.69048 26.4524 4.78571 26.5 4.92857L29.5714 10.2143ZM14.8571 9.14286C16.5238 9.14286 17.9286 9.71429 19.0714 10.8571C20.2619 12 20.881 13.381 20.9286 15L13.6429 21.2143C12.2143 20.9286 11.0476 20.2143 10.1429 19.0714C9.2381 17.9286 8.78571 16.6429 8.78571 15.2143C8.78571 13.5476 9.38095 12.119 10.5714 10.9286C11.7619 9.73809 13.1905 9.14286 14.8571 9.14286ZM14.8571 18.2857C15.7143 18.2857 16.4286 18 17 17.4286C17.619 16.8095 17.9286 16.0714 17.9286 15.2143C17.9286 14.3571 17.619 13.6429 17 13.0714C16.4286 12.4524 15.7143 12.1429 14.8571 12.1429C14 12.1429 13.2619 12.4524 12.6429 13.0714C12.0714 13.6429 11.7857 14.3571 11.7857 15.2143C11.7857 16.0714 12.0714 16.8095 12.6429 17.4286C13.2619 18 14 18.2857 14.8571 18.2857ZM14.8571 9.14286C16.5238 9.14286 17.9286 9.71429 19.0714 10.8571C20.2619 12 20.881 13.381 20.9286 15L13.6429 21.2143C12.2143 20.9286 11.0476 20.2143 10.1429 19.0714C9.2381 17.9286 8.78571 16.6429 8.78571 15.2143C8.78571 13.5476 9.38095 12.119 10.5714 10.9286C11.7619 9.73809 13.1905 9.14286 14.8571 9.14286ZM14.8571 18.2857C15.7143 18.2857 16.4286 18 17 17.4286C17.619 16.8095 17.9286 16.0714 17.9286 15.2143C17.9286 14.3571 17.619 13.6429 17 13.0714C16.4286 12.4524 15.7143 12.1429 14.8571 12.1429C14 12.1429 13.2619 12.4524 12.6429 13.0714C12.0714 13.6429 11.7857 14.3571 11.7857 15.2143C11.7857 16.0714 12.0714 16.8095 12.6429 17.4286C13.2619 18 14 18.2857 14.8571 18.2857Z" fill="var(--fill-0, #50CEE1)"/>
<g id="&#243;&#177;&#129;&#156;_2" opacity="0.6">
<path d="M24 22.8571H19.4286V18.2857H24V15.2143L30.0714 20.5714L24 25.8571V22.8571Z" fill="var(--fill-0, #146DA6)"/>
<path d="M17.9286 24.3571H22.5V28.9286H17.9286V32L11.7857 26.6429L17.9286 21.2857V24.3571Z" fill="var(--fill-0, #146DA6)"/>
</g>
</g>
</svg>
