<svg preserveAspectRatio="none" width="100%" height="100%" overflow="visible" style="display: block;" viewBox="0 0 24 24" fill="none" xmlns="http://www.w3.org/2000/svg">
<path id="Shape" d="M17.1818 0C17.9242 0.0164989 18.5135 0.631629 18.4973 1.37402C18.4808 2.11663 17.8648 2.70596 17.1223 2.68945C15.0055 2.80157 13.3463 4.55097 13.3469 6.6709V10.6582H15.8225C16.565 10.6582 17.1672 11.2603 17.1672 12.0029C17.1672 12.7455 16.565 13.3477 15.8225 13.3477V13.3428H13.3469V17.3301C13.3505 20.9466 10.4697 23.9068 6.85469 24C6.11229 24.0123 5.50093 23.4202 5.48848 22.6777C5.47611 21.9352 6.06737 21.3231 6.80977 21.3105H6.89571C9.00813 21.193 10.6618 19.446 10.6633 17.3301V13.3428H9.66524C8.92269 13.3428 8.32051 12.7407 8.32051 11.998C8.32071 11.2556 8.92281 10.6533 9.66524 10.6533H10.6633V6.6709C10.66 3.04401 13.5562 0.079833 17.1818 0ZM8.58028 10.6533C8.18814 10.9899 7.96211 11.4812 7.96211 11.998C7.96215 12.5149 8.1881 13.0062 8.58028 13.3428H6.67403C4.63416 13.3446 2.92472 14.8852 2.71114 16.9141C2.49762 18.9429 3.84911 20.8059 5.84395 21.2324C5.39052 21.5656 5.12251 22.0946 5.12227 22.6572C5.12352 23.134 5.31676 23.5904 5.6584 23.9229C2.21089 23.3921 -0.246539 20.2956 0.0197303 16.8174C0.286104 13.3393 3.18606 10.6531 6.67403 10.6533H8.58028ZM18.3518 0.0742188C20.6394 0.426658 22.5809 1.93974 23.4787 4.08398C24.3442 6.14407 24.1215 8.50054 22.8859 10.3623C21.6504 12.224 19.5655 13.3441 17.3313 13.3467H16.9045C17.2965 13.0101 17.5227 12.5187 17.5227 12.002C17.5225 11.4854 17.2964 10.9947 16.9045 10.6582H17.3313C19.38 10.6691 21.1043 9.12553 21.3195 7.08789C21.5347 5.05024 20.1711 3.18104 18.1652 2.76367C18.5825 2.45547 18.8432 1.97946 18.8791 1.46191C18.915 0.944373 18.7224 0.437141 18.3518 0.0742188Z" fill="var(--fill-0, #343C4C)"/>
</svg>
