<svg preserveAspectRatio="none" width="100%" height="100%" overflow="visible" style="display: block;" viewBox="0 0 15 23" fill="none" xmlns="http://www.w3.org/2000/svg">
<path id="Big avatar" d="M7.2002 13.5996C8.51235 13.5996 9.70396 13.8731 10.7744 14.4199C11.8793 14.9668 12.7599 15.7127 13.416 16.6572C14.0721 17.5521 14.4004 18.5223 14.4004 19.5664V22.4004H0V19.5664C0 18.5223 0.32826 17.5521 0.984375 16.6572C1.64046 15.7128 2.50385 14.9667 3.57422 14.4199C4.67918 13.8731 5.88807 13.5996 7.2002 13.5996ZM7.2002 0C8.74318 4.62168e-05 10.0622 0.547578 11.1572 1.64258C12.2522 2.7376 12.7997 4.05667 12.7998 5.59961C12.7998 7.14272 12.2523 8.46251 11.1572 9.55762C10.0622 10.6526 8.74313 11.2001 7.2002 11.2002C5.65708 11.2002 4.3373 10.6527 3.24219 9.55762C2.14714 8.46252 1.59961 7.14267 1.59961 5.59961C1.5997 4.05676 2.1473 2.73756 3.24219 1.64258C4.3373 0.547467 5.65708 0 7.2002 0Z" fill="var(--fill-0, #50CEE1)"/>
</svg>
