<svg preserveAspectRatio="none" width="100%" height="100%" overflow="visible" style="display: block;" viewBox="0 0 32 22" fill="none" xmlns="http://www.w3.org/2000/svg">
<path id="Laptop" d="M26.6875 0C27.3958 0 28 0.270833 28.5 0.8125C29.0417 1.3125 29.3125 1.9375 29.3125 2.6875V16C29.3125 16.75 29.0417 17.3958 28.5 17.9375C28.1545 18.283 27.7584 18.5055 27.3135 18.6123C27.2277 18.2552 27.0871 17.9028 26.873 17.5713C26.5027 16.9103 25.9401 16.4407 25.2949 16.1533C25.294 16.1529 25.2929 16.1518 25.292 16.1514L24.9541 16H26.6875V2.6875H5.3125V16H13.3037C13.3228 16.0107 13.3412 16.0226 13.3604 16.0332L13.418 16.0654V18.1992L12.373 17.6455H11.6152C10.8081 17.6456 10.0278 17.9361 9.41992 18.5439L9.39844 18.5654L7.10742 21L8.27637 22H0V18.6875H5.3125C4.60417 18.6875 3.97917 18.4375 3.4375 17.9375C2.9375 17.3958 2.6875 16.75 2.6875 16V2.6875C2.6875 1.9375 2.9375 1.3125 3.4375 0.8125C3.97917 0.270833 4.60417 0 5.3125 0H26.6875ZM20.0586 16L24.4805 17.9795C24.7927 18.1184 25.0184 18.3268 25.1572 18.6045C25.3307 18.8474 25.4179 19.1423 25.418 19.4893V22H25.417V19.4893C25.4169 19.1423 25.3297 18.8474 25.1562 18.6045C25.0174 18.3268 24.7918 18.1184 24.4795 17.9795L20.0576 16H20.0586ZM32 18.6875V22H27.418V19.4893C27.4179 19.2234 27.389 18.9545 27.3311 18.6875H32ZM11.876 19.6455L15.417 21.5195V21.5205L11.875 19.6455H11.876Z" fill="var(--fill-0, #50CEE1)"/>
</svg>
