<svg preserveAspectRatio="none" width="100%" height="100%" overflow="visible" style="display: block;" viewBox="0 0 24 24" fill="none" xmlns="http://www.w3.org/2000/svg">
<g id="Stylized product icon">
<path id="Polygon 2" d="M11.4642 10.1905C12.9439 9.79675 14.2979 11.1416 13.9014 12.6112L11.2251 22.5315C10.8287 24.0011 8.97902 24.4934 7.8958 23.4175L0.584081 16.1554C-0.499137 15.0795 -0.00353118 13.2424 1.47617 12.8487L11.4642 10.1905Z" fill="var(--fill-0, #50CEE1)"/>
<path id="Polygon 3" opacity="0.6" d="M12.5226 13.9045C11.0414 14.3034 9.68917 12.9521 10.0885 11.4721L12.7836 1.48177C13.1829 0.00172899 15.0343 -0.497006 16.1161 0.584053L23.4184 7.8812C24.5002 8.96226 24.0011 10.8123 22.52 11.2113L12.5226 13.9045Z" fill="var(--fill-0, #146DA6)"/>
<path id="Rectangle 4365" opacity="0.4" d="M8.78786 23.9322C7.72626 23.6496 7.09626 22.5659 7.38071 21.5115L12.7887 1.46543C13.0732 0.411038 14.1644 -0.214686 15.226 0.0678379C16.2876 0.350361 16.9176 1.43415 16.6331 2.48854L11.2251 22.5346C10.9406 23.589 9.84945 24.2147 8.78786 23.9322Z" fill="var(--fill-0, #146DA6)"/>
</g>
</svg>
