<svg preserveAspectRatio="none" width="100%" height="100%" overflow="visible" style="display: block;" viewBox="0 0 20 20" fill="none" xmlns="http://www.w3.org/2000/svg">
<g id="Vector">
<path d="M14.91 17.6018L14.6776 14.6306L10.7181 14.3214C8.40341 14.1395 6.70286 13.4155 5.92978 12.2825C4.65337 10.403 4.85309 7.91317 6.40557 6.36189L2.81208 2.80445C-0.46906 6.0843 -0.936687 11.2492 1.71428 15.1493C1.71428 15.1493 1.71486 15.1504 1.71543 15.1504C1.71543 15.151 1.71601 15.1516 1.71658 15.1521C2.89141 16.8744 5.33692 19.0097 10.3198 19.4015L17.2408 19.9425C16.0154 19.8421 15.0093 18.8663 14.91 17.6018Z" fill="url(#paint0_linear_99_53628)"/>
<path d="M19.9839 17.187C19.9856 17.2054 19.9919 17.2226 19.993 17.241L19.4521 10.3214C19.0604 5.34004 16.9255 2.89525 15.2035 1.72076C15.203 1.72076 15.2024 1.72019 15.2018 1.71961C15.2018 1.71961 15.2007 1.71904 15.2007 1.71847C11.3014 -0.932303 6.09027 -0.475161 2.81161 2.80445L6.38759 6.3792C7.93916 4.82718 10.4553 4.65669 12.3344 5.93273C13.4667 6.70558 14.1906 8.40563 14.3724 10.7196L14.9139 17.65C15.024 19.0535 16.2498 20.1017 17.6522 19.9921C18.2826 19.9428 18.8407 19.668 19.2548 19.2531C19.6695 18.8389 19.9443 18.2806 19.9936 17.65C20.0062 17.4928 19.9988 17.3385 19.9833 17.187H19.9839Z" fill="url(#paint1_linear_99_53628)"/>
</g>
<defs>
<linearGradient id="paint0_linear_99_53628" x1="30.1385" y1="17.3374" x2="4.87229" y2="11.1576" gradientUnits="userSpaceOnUse">
<stop stop-color="#2C8CC9"/>
<stop offset="0.49" stop-color="#5962B7"/>
<stop offset="1" stop-color="#975590"/>
</linearGradient>
<linearGradient id="paint1_linear_99_53628" x1="17.7526" y1="14.0888" x2="7.70858" y2="4.04773" gradientUnits="userSpaceOnUse">
<stop stop-color="#2C8CC9"/>
<stop offset="0.49" stop-color="#5962B7"/>
<stop offset="1" stop-color="#975590"/>
</linearGradient>
</defs>
</svg>
