<svg preserveAspectRatio="none" width="100%" height="100%" overflow="visible" style="display: block;" viewBox="0 0 21 20" fill="none" xmlns="http://www.w3.org/2000/svg">
<path id="briefcase" opacity="0.6" d="M8.38028 0H12.6197C13.1784 0 13.6549 0.213992 14.0493 0.641975C14.4765 1.03704 14.6901 1.5144 14.6901 2.07407V4.19753H18.9296C19.4883 4.19753 19.9648 4.41152 20.3592 4.83951C20.7864 5.23457 21 5.7284 21 6.32099V17.8765C21 18.4691 20.7864 18.9794 20.3592 19.4074C19.9648 19.8025 19.4883 20 18.9296 20H2.07042C1.51174 20 1.01878 19.8025 0.591549 19.4074C0.197183 18.9794 0 18.4691 0 17.8765V6.32099C0 5.7284 0.197183 5.23457 0.591549 4.83951C1.01878 4.41152 1.51174 4.19753 2.07042 4.19753H6.30986V2.07407C6.30986 1.5144 6.50704 1.03704 6.90141 0.641975C7.32864 0.213992 7.8216 0 8.38028 0ZM12.6197 4.19753V2.07407H8.38028V4.19753H12.6197Z" fill="var(--fill-0, #146DA6)"/>
</svg>
