<svg preserveAspectRatio="none" width="100%" height="100%" overflow="visible" style="display: block;" viewBox="0 0 32 20" fill="none" xmlns="http://www.w3.org/2000/svg">
<path id="Small avatars" opacity="0.6" d="M6.80957 12.0078C6.14271 12.5879 5.55539 13.2444 5.04688 13.9766C4.01583 15.3829 3.5 16.9062 3.5 18.5469V20H0V17.4238C0 16.4747 0.296346 15.5929 0.888672 14.7793C1.48093 13.9208 2.26034 13.2432 3.22656 12.7461C4.22416 12.2489 5.31535 12 6.5 12C6.60406 12 6.7072 12.004 6.80957 12.0078ZM25.5 12C26.6847 12 27.7601 12.2489 28.7266 12.7461C29.724 13.2432 30.519 13.9207 31.1113 14.7793C31.7037 15.5929 32 16.4747 32 17.4238V20H26.1289V18.5469C26.1289 16.9062 25.6131 15.3829 24.582 13.9766C24.1725 13.3869 23.7064 12.8475 23.1855 12.3564C23.9129 12.1204 24.6839 12 25.5 12ZM6.05078 0.000976562C6.02933 0.262898 6.01759 0.529119 6.01758 0.799805C6.01758 3.22454 6.878 5.29772 8.59863 7.01855C9.0147 7.43462 9.45188 7.79972 9.90918 8.11523C9.79272 8.258 9.66833 8.39808 9.5332 8.5332C8.55542 9.51098 7.37778 10 6 10C4.62222 10 3.44457 9.51098 2.4668 8.5332C1.48902 7.55543 1 6.37778 1 5C1 3.62222 1.48902 2.44457 2.4668 1.4668C3.44457 0.489019 4.62222 2.25603e-07 6 0C6.01696 0 6.03388 0.000828369 6.05078 0.000976562ZM25 0C26.3778 0 27.5554 0.48902 28.5332 1.4668C29.511 2.44457 30 3.62222 30 5C30 6.37778 29.511 7.55543 28.5332 8.5332C27.5554 9.51098 26.3778 10 25 10C23.6222 10 22.4446 9.51098 21.4668 8.5332C21.1201 8.1865 20.8361 7.81396 20.6123 7.41699C20.7558 7.28932 20.8982 7.15744 21.0371 7.01855C22.7577 5.29772 23.6182 3.22454 23.6182 0.799805C23.6182 0.593424 23.6091 0.389763 23.5967 0.188477C24.0388 0.0630245 24.5065 8.08029e-08 25 0Z" fill="var(--fill-0, #146DA6)"/>
</svg>
