<svg preserveAspectRatio="none" width="100%" height="100%" overflow="visible" style="display: block;" viewBox="0 0 12 12" fill="none" xmlns="http://www.w3.org/2000/svg">
<path id="Copilot logo 1" d="M11.9912 10.5555L11.6528 6.22994C11.4156 3.2136 10.1427 1.74105 9.11678 1.03717L9.0851 1.01557C6.76431 -0.549095 3.65768 -0.281719 1.69939 1.65145L1.61191 1.74213C-0.285181 3.69941 -0.537167 6.78808 1.01255 9.08579L1.08454 9.15488V9.18943C1.8009 10.192 3.2725 11.4206 6.22866 11.653L10.48 11.9855V11.9845L10.5956 11.9913C10.6888 12.0006 10.7615 12.0021 10.8296 11.9974C11.1309 11.974 11.4149 11.843 11.628 11.6293C11.8426 11.4152 11.9739 11.1312 11.997 10.83C12.0024 10.7631 12.0006 10.69 11.9912 10.5994V10.5555ZM6.42701 9.11961C4.84958 8.99546 3.67748 8.4823 3.12635 7.67406C2.2282 6.35193 2.36607 4.59186 3.45429 3.48853L3.48273 3.45974C4.58751 2.36901 6.34961 2.22974 7.67218 3.12795C8.48106 3.67926 8.99475 4.85132 9.11894 6.42822L9.34717 9.3474L6.42701 9.11961Z" fill="var(--fill-0, #2B3271)"/>
</svg>
