<svg preserveAspectRatio="none" width="100%" height="100%" overflow="visible" style="display: block;" viewBox="0 0 14 14" fill="none" xmlns="http://www.w3.org/2000/svg">
<g id="Frame 6495">
<rect width="13.3125" height="13.3125" rx="6.65625" fill="var(--fill-0, #EBFDFF)"/>
<path id="MATERIAL ICON" d="M6 4.65625H7.3125V3.3125H6V4.65625ZM6.65625 12C5.69792 12 4.80208 11.7604 3.96875 11.2812C3.15625 10.8021 2.51042 10.1562 2.03125 9.34375C1.55208 8.51042 1.3125 7.61458 1.3125 6.65625C1.3125 5.69792 1.55208 4.8125 2.03125 4C2.51042 3.16667 3.15625 2.51042 3.96875 2.03125C4.80208 1.55208 5.69792 1.3125 6.65625 1.3125C7.61458 1.3125 8.5 1.55208 9.3125 2.03125C10.1458 2.51042 10.8021 3.16667 11.2812 4C11.7604 4.8125 12 5.69792 12 6.65625C12 7.61458 11.7604 8.51042 11.2812 9.34375C10.8021 10.1562 10.1458 10.8021 9.3125 11.2812C8.5 11.7604 7.61458 12 6.65625 12ZM6.65625 0C5.78125 0 4.92708 0.166667 4.09375 0.5C3.28125 0.833333 2.5625 1.3125 1.9375 1.9375C1.3125 2.5625 0.833333 3.29167 0.5 4.125C0.166667 4.9375 0 5.78125 0 6.65625C0 7.53125 0.166667 8.38542 0.5 9.21875C0.833333 10.0312 1.3125 10.75 1.9375 11.375C2.5625 12 3.28125 12.4792 4.09375 12.8125C4.92708 13.1458 5.78125 13.3125 6.65625 13.3125C7.53125 13.3125 8.375 13.1458 9.1875 12.8125C10.0208 12.4792 10.75 12 11.375 11.375C12 10.75 12.4792 10.0312 12.8125 9.21875C13.1458 8.38542 13.3125 7.53125 13.3125 6.65625C13.3125 5.78125 13.1458 4.9375 12.8125 4.125C12.4792 3.29167 12 2.5625 11.375 1.9375C10.75 1.3125 10.0208 0.833333 9.1875 0.5C8.375 0.166667 7.53125 0 6.65625 0ZM6 10H7.3125V6H6V10Z" fill="var(--fill-0, #146DA6)"/>
</g>
</svg>
