<svg preserveAspectRatio="none" width="100%" height="100%" overflow="visible" style="display: block;" viewBox="0 0 32 28" fill="none" xmlns="http://www.w3.org/2000/svg">
<g id="App icon">
<path id="&#243;&#176;&#131;&#150;" opacity="0.6" d="M19.3803 8H23.6197C24.1784 8 24.6549 8.21399 25.0493 8.64198C25.4765 9.03704 25.6901 9.5144 25.6901 10.0741V12.1975H29.9296C30.4883 12.1975 30.9648 12.4115 31.3592 12.8395C31.7864 13.2346 32 13.7284 32 14.321V25.8765C32 26.4691 31.7864 26.9794 31.3592 27.4074C30.9648 27.8025 30.4883 28 29.9296 28H13.0704C12.5117 28 12.0188 27.8025 11.5915 27.4074C11.1972 26.9794 11 26.4691 11 25.8765V14.321C11 13.7284 11.1972 13.2346 11.5915 12.8395C12.0188 12.4115 12.5117 12.1975 13.0704 12.1975H17.3099V10.0741C17.3099 9.5144 17.507 9.03704 17.9014 8.64198C18.3286 8.21399 18.8216 8 19.3803 8ZM23.6197 12.1975V10.0741H19.3803V12.1975H23.6197Z" fill="var(--fill-0, #146DA6)"/>
<path id="Subtract" d="M0 17.1357C0.000108982 18.2537 0.560892 19.2984 1.68164 20.2705C2.80249 21.1941 4.31331 21.9479 6.21387 22.5312C7.11144 22.7774 8.04043 22.9639 9 23.0967V27.4521C9.00001 27.5589 9.0069 27.6633 9.01758 27.7656C8.05181 27.6327 7.11689 27.4459 6.21387 27.1982C4.3134 26.6149 2.80248 25.861 1.68164 24.9375C0.560783 23.9653 0 22.9198 0 21.8018V17.1357ZM0 9.33301C0 10.4511 0.560783 11.4965 1.68164 12.4688C2.80248 13.3923 4.3134 14.1462 6.21387 14.7295C7.11143 14.9757 8.04045 15.1621 9 15.2949V19.9609C8.04042 19.8281 7.11146 19.6417 6.21387 19.3955C4.31349 18.8122 2.80246 18.0592 1.68164 17.1357C0.560783 16.1635 0 15.1181 0 14V9.33301ZM12.5 0C14.7417 0 16.8133 0.291667 18.7139 0.875C20.663 1.40971 22.1976 2.1636 23.3184 3.13574C24.4043 4.03055 24.9622 5.03917 24.9961 6.16211C24.732 6.05588 24.4485 6 24.1436 6H18C17.3296 6 16.7383 6.25696 16.2256 6.77051C15.7523 7.24458 15.5156 7.81765 15.5156 8.48926V11.0371H11.4844C10.814 11.0371 10.2226 11.2941 9.70996 11.8076C9.56477 11.9531 9.44342 12.1106 9.34277 12.2783C8.26111 12.1448 7.21795 11.9424 6.21387 11.667C4.3134 11.0837 2.80248 10.3298 1.68164 9.40625C0.560783 8.43403 0 7.38856 0 6.27051C0.000104289 5.10397 0.560887 4.05927 1.68164 3.13574C2.80249 2.16354 4.31331 1.40972 6.21387 0.875C8.16308 0.291743 10.2584 0 12.5 0Z" fill="var(--fill-0, #50CEE1)"/>
</g>
</svg>
