<svg preserveAspectRatio="none" width="100%" height="100%" overflow="visible" style="display: block;" viewBox="0 0 24 24" fill="none" xmlns="http://www.w3.org/2000/svg">
<g id="Frame 1116606227">
<path id="Subtract" d="M10.5 14.6406C11.6001 14.6406 12.651 14.7259 13.6533 14.8936L12.5488 15.7471L14.1689 17.0039L12.5488 18.2549L18.0186 22.5H0V19.8594C9.13857e-05 18.918 0.47068 18.058 1.41211 17.2803C2.35362 16.4616 3.6233 15.8272 5.21973 15.377C6.85702 14.8858 8.61713 14.6406 10.5 14.6406ZM21 22.5H20.9814L21 22.4844V22.5ZM10.5 1.5C11.9327 1.5 13.1612 2.01176 14.1846 3.03516C15.2077 4.05841 15.7196 5.30688 15.7197 6.78027C15.7197 8.21292 15.2078 9.44149 14.1846 10.4648C13.1612 11.4882 11.9327 12 10.5 12C9.06725 12 7.83882 11.4882 6.81543 10.4648C5.79218 9.44149 5.28027 8.21292 5.28027 6.78027C5.28037 5.30688 5.79228 4.05841 6.81543 3.03516C7.83882 2.01176 9.06725 1.5 10.5 1.5Z" fill="var(--fill-0, #50CEE1)"/>
<path id="&#243;&#176;&#189;&#152;" opacity="0.6" d="M19.5 9.75L24 13.2422L19.5 16.7578L15 13.2422L19.5 9.75ZM23.1797 15.1172L24 15.75L19.5 19.2422L15 15.75L15.8203 15.1172L19.5 17.9766L23.1797 15.1172ZM23.1797 17.625L24 18.2578L19.5 21.75L15 18.2578L15.8203 17.625L19.5 20.4844L23.1797 17.625Z" fill="var(--fill-0, #146DA6)"/>
</g>
</svg>
