<svg preserveAspectRatio="none" width="100%" height="100%" overflow="visible" style="display: block;" viewBox="0 0 13 13" fill="none" xmlns="http://www.w3.org/2000/svg">
<path id="radar" opacity="0.6" d="M10.9371 1.86291C11.518 2.46385 11.9687 3.15493 12.2892 3.93615C12.6297 4.71737 12.8 5.53865 12.8 6.4C12.8 7.24131 12.6397 8.0626 12.3192 8.86385C11.9987 9.64507 11.538 10.3362 10.9371 10.9371C10.3362 11.538 9.63506 11.9987 8.8338 12.3192C8.05258 12.6397 7.24131 12.8 6.4 12.8C5.55869 12.8 4.7374 12.6397 3.93615 12.3192C3.15493 11.9987 2.46385 11.538 1.86291 10.9371C1.26197 10.3362 0.801252 9.64507 0.480751 8.86385C0.16025 8.0626 0 7.24131 0 6.4C0 5.55869 0.16025 4.74742 0.480751 3.9662C0.801252 3.16495 1.26197 2.46385 1.86291 1.86291C2.46385 1.26197 3.15493 0.801252 3.93615 0.480751C4.7374 0.16025 5.55869 0 6.4 0H7.03099V5.28826C7.2313 5.40845 7.39155 5.5687 7.51174 5.76901C7.63193 5.9493 7.69202 6.15962 7.69202 6.4C7.69202 6.76056 7.56182 7.07105 7.30141 7.33146C7.06103 7.57183 6.76056 7.69202 6.4 7.69202C6.03944 7.69202 5.72895 7.57183 5.46854 7.33146C5.22817 7.07105 5.10798 6.76056 5.10798 6.4C5.10798 6.15962 5.16808 5.9493 5.28826 5.76901C5.40845 5.5687 5.5687 5.40845 5.76901 5.28826V3.93615C5.20814 4.07637 4.74742 4.37684 4.38685 4.83756C4.02629 5.29828 3.84601 5.81909 3.84601 6.4C3.84601 7.1011 4.0964 7.70203 4.59718 8.20282C5.09797 8.7036 5.6989 8.95399 6.4 8.95399C7.1011 8.95399 7.70203 8.7036 8.20282 8.20282C8.7036 7.70203 8.95399 7.1011 8.95399 6.4C8.95399 5.6989 8.7036 5.09797 8.20282 4.59718L9.10423 3.69577C9.46479 4.03631 9.74523 4.44695 9.94554 4.9277C10.1459 5.38842 10.246 5.87919 10.246 6.4C10.246 7.1011 10.0757 7.75211 9.73521 8.35305C9.39468 8.93396 8.92394 9.39468 8.323 9.73521C7.7421 10.0757 7.1011 10.246 6.4 10.246C5.6989 10.246 5.04789 10.0757 4.44695 9.73521C3.86604 9.39468 3.40532 8.93396 3.06479 8.35305C2.72426 7.75211 2.55399 7.1011 2.55399 6.4C2.55399 5.45853 2.85446 4.63725 3.4554 3.93615C4.07637 3.21502 4.84757 2.77433 5.76901 2.61408V1.32207C4.9277 1.42222 4.16651 1.71268 3.48545 2.19343C2.80438 2.67418 2.26354 3.28513 1.86291 4.02629C1.46228 4.74742 1.26197 5.53865 1.26197 6.4C1.26197 7.32144 1.49233 8.18279 1.95305 8.98404C2.41377 9.76526 3.03474 10.3862 3.81596 10.8469C4.61721 11.3077 5.47856 11.538 6.4 11.538C7.32144 11.538 8.17277 11.3077 8.95399 10.8469C9.75524 10.3862 10.3862 9.76526 10.8469 8.98404C11.3077 8.18279 11.538 7.32144 11.538 6.4C11.538 5.6989 11.3978 5.03787 11.1174 4.4169C10.857 3.79593 10.4964 3.24507 10.0357 2.76432L10.9371 1.86291Z" fill="var(--fill-0, #146DA6)"/>
</svg>
