<svg preserveAspectRatio="none" width="100%" height="100%" overflow="visible" style="display: block;" viewBox="0 0 20 20" fill="none" xmlns="http://www.w3.org/2000/svg">
<g id="without padding">
<path id="Vector 10" d="M7.20921 17.843H0L6.1833 7.01007C6.21885 6.9464 6.25521 6.88268 6.29241 6.81892L6.1833 7.01007C3.50437 11.8084 5.46339 16.3395 7.20921 17.843Z" fill="url(#paint0_linear_99_53620)"/>
<path id="Vector 11" d="M12.7221 17.8437C11.6494 13.1108 10.3877 11.4422 9.93134 11.2643C13.7633 10.7859 18.266 15.4945 20 17.8437L12.7221 17.8437Z" fill="url(#paint1_linear_99_53620)"/>
<g id="Vector 12">
<path d="M6.28837 6.82702C6.28837 6.82702 7.94023 3.73938 8.45719 3.04859C9.97091 1.0259 12.2893 4.15415 13.533 6.35317L15.7552 10.2821C15.6445 10.2019 15.5193 10.1275 15.3816 10.0603C14.4365 9.59939 12.9021 9.482 11.4053 10.2152C10.9199 10.4573 10.423 10.7976 9.93024 11.2643C8.66439 12.4967 7.6017 14.5635 7.20517 17.8392C3.34375 14.5 4.96365 8.88013 6.28837 6.82702Z" fill="url(#paint2_linear_99_53620)"/>
<path d="M15.3816 10.0603C14.6459 9.72002 13.0964 9.3717 11.4053 10.2152C12.9021 9.482 14.4365 9.59939 15.3816 10.0603Z" fill="url(#paint3_linear_99_53620)"/>
</g>
<path id="Vector 13" d="M20 17.8437L15.7604 10.2821C15.2758 9.86993 12.5461 8.7912 9.93538 11.2643C13.958 10.9766 18.3078 15.5807 20 17.8437Z" fill="url(#paint4_linear_99_53620)"/>
</g>
<defs>
<linearGradient id="paint0_linear_99_53620" x1="3.17851" y1="21.654" x2="4.52495" y2="6.81526" gradientUnits="userSpaceOnUse">
<stop stop-color="#B56ECF"/>
<stop offset="1" stop-color="#593CB4"/>
</linearGradient>
<linearGradient id="paint1_linear_99_53620" x1="10.9289" y1="11.228" x2="15.8683" y2="18.7943" gradientUnits="userSpaceOnUse">
<stop stop-color="#3A2AAB"/>
<stop offset="1" stop-color="#AE6ACD"/>
</linearGradient>
<linearGradient id="paint2_linear_99_53620" x1="10.2983" y1="2.28102" x2="6.13448" y2="17.838" gradientUnits="userSpaceOnUse">
<stop stop-color="#7024D7"/>
<stop offset="0.36529" stop-color="#983EAA"/>
<stop offset="1" stop-color="#C95E75"/>
</linearGradient>
<linearGradient id="paint3_linear_99_53620" x1="10.2983" y1="2.28102" x2="6.13448" y2="17.838" gradientUnits="userSpaceOnUse">
<stop stop-color="#7024D7"/>
<stop offset="0.36529" stop-color="#983EAA"/>
<stop offset="1" stop-color="#C95E75"/>
</linearGradient>
<linearGradient id="paint4_linear_99_53620" x1="12.3708" y1="9.43778" x2="20.5774" y2="16.2788" gradientUnits="userSpaceOnUse">
<stop stop-color="#382AAA"/>
<stop offset="0.670424" stop-color="#9C60C7"/>
</linearGradient>
</defs>
</svg>
