<svg preserveAspectRatio="none" width="100%" height="100%" overflow="visible" style="display: block;" viewBox="0 0 10 16" fill="none" xmlns="http://www.w3.org/2000/svg">
<path id="Small avatars" opacity="0.6" d="M4.3125 9.59961C5.25996 9.59968 6.12059 9.79868 6.89355 10.1963C7.69144 10.594 8.32796 11.1364 8.80176 11.8232C9.27555 12.474 9.5127 13.1802 9.5127 13.9395V16H4.81641V13.4375C4.81637 12.1251 4.40373 10.9062 3.5791 9.78125C3.54933 9.73839 3.51781 9.69651 3.4873 9.6543C3.75577 9.61917 4.03087 9.59961 4.3125 9.59961ZM3.91211 0C5.01415 7.25209e-05 5.95713 0.390767 6.73926 1.17285C7.52138 1.95504 7.91211 2.89785 7.91211 4C7.91211 5.10215 7.52138 6.04496 6.73926 6.82715C5.95713 7.60923 5.01415 7.99993 3.91211 8C2.81023 7.99995 1.86801 7.60896 1.08594 6.82715C0.517574 6.25878 0.155533 5.60561 0 4.86816C0.255496 4.67106 0.503638 4.45435 0.742188 4.21582C1.89565 3.06231 2.56292 1.71014 2.75 0.161133C3.11515 0.0532892 3.50286 1.71932e-05 3.91211 0Z" fill="var(--fill-0, #146DA6)"/>
</svg>
