<svg preserveAspectRatio="none" width="100%" height="100%" overflow="visible" style="display: block;" viewBox="0 0 22 28" fill="none" xmlns="http://www.w3.org/2000/svg">
<path id="&#243;&#176;&#166;&#145;" d="M0 0V28H9.44966V22.5312H10V14C10 13.4477 10.4477 13 11 13H22V0H0ZM3.10067 3.13542H6.27517V6.19792H3.10067V3.13542ZM9.44966 3.13542H12.5503V6.19792H9.44966V3.13542ZM15.7248 3.13542H18.8993V6.19792H15.7248V3.13542ZM3.10067 9.33333H6.27517V12.4688H3.10067V9.33333ZM9.44966 9.33333H12.5503V12.4688H9.44966V9.33333ZM15.7248 9.33333H18.8993V12.4688H15.7248V9.33333ZM3.10067 15.5312H6.27517V18.6667H3.10067V15.5312ZM9.44966 15.5312H10V18.6667H9.44966V15.5312ZM3.10067 21.8021H6.27517V24.8646H3.10067V21.8021Z" fill="var(--fill-0, #50CEE1)"/>
</svg>
