<svg preserveAspectRatio="none" width="100%" height="100%" overflow="visible" style="display: block;" viewBox="0 0 20 20" fill="none" xmlns="http://www.w3.org/2000/svg">
<path id="Copilot logo 1" d="M19.9854 17.5924L19.4214 10.3832C19.026 5.35599 16.9045 2.90175 15.1946 1.72861L15.1418 1.69262C11.2739 -0.915158 6.09614 -0.469532 2.83232 2.75241L2.68652 2.90355C-0.475302 6.16568 -0.895278 11.3135 1.68758 15.143L1.80757 15.2581V15.3157C3.00151 16.9867 5.45417 19.0343 10.3811 19.4217L17.4667 19.9759V19.9741L17.6593 19.9855C17.8147 20.0011 17.9359 20.0035 18.0493 19.9957C18.5515 19.9567 19.0248 19.7384 19.38 19.3821C19.7376 19.0253 19.9566 18.552 19.995 18.05C20.004 17.9385 20.001 17.8167 19.9854 17.6656V17.5924ZM10.7117 15.1994C8.08263 14.9924 6.12913 14.1372 5.21059 12.7901C3.71367 10.5866 3.94346 7.6531 5.75716 5.81422L5.80455 5.76623C7.64585 3.94834 10.5827 3.71623 12.787 5.21325C14.1351 6.13209 14.9912 8.08553 15.1982 10.7137L15.5786 15.579L10.7117 15.1994Z" fill="var(--fill-0, #2B3271)"/>
</svg>
