<svg preserveAspectRatio="none" width="100%" height="100%" overflow="visible" style="display: block;" viewBox="0 0 12 20" fill="none" xmlns="http://www.w3.org/2000/svg">
<path id="Small avatars" opacity="0.6" d="M5.43066 12C6.61518 12 7.69089 12.249 8.65723 12.7461C9.65458 13.2432 10.4497 13.9208 11.042 14.7793C11.6343 15.5929 11.9307 16.4747 11.9307 17.4238V20H6.05957V16.5469C6.05957 14.9328 5.55941 13.4331 4.56152 12.0459C4.8454 12.0149 5.13516 12 5.43066 12ZM4.93066 0C6.30834 0 7.48613 0.489165 8.46387 1.4668C9.44164 2.44457 9.93066 3.62222 9.93066 5C9.93066 6.37778 9.44164 7.55543 8.46387 8.5332C7.48613 9.51083 6.30834 10 4.93066 10C3.55307 9.9999 2.37514 9.51088 1.39746 8.5332C0.63114 7.7668 0.165672 6.87733 0 5.86523C0.333773 5.61065 0.657022 5.3293 0.967773 5.01855C2.34409 3.64208 3.16791 2.03983 3.44336 0.212891C3.91009 0.0709596 4.40587 3.94223e-05 4.93066 0Z" fill="var(--fill-0, #146DA6)"/>
</svg>
