<svg preserveAspectRatio="none" width="100%" height="100%" overflow="visible" style="display: block;" viewBox="0 0 24 24" fill="none" xmlns="http://www.w3.org/2000/svg">
<path id="Mark" d="M15.7563 13.343H13.2913V17.331C13.2965 19.0664 12.6232 20.7351 11.4152 21.981C10.2072 23.227 8.56008 23.9515 6.82535 24C6.47372 23.9981 6.13682 23.8585 5.88682 23.6113C5.63683 23.364 5.49361 23.0286 5.48786 22.677C5.48211 22.3254 5.61427 21.9856 5.85605 21.7302C6.09782 21.4749 6.42997 21.3244 6.78135 21.311H6.86635C7.88155 21.252 8.83572 20.8068 9.53318 20.0668C10.2306 19.3268 10.6185 18.3479 10.6173 17.331V13.343H9.62435C9.27411 13.3334 8.94143 13.1876 8.69708 12.9365C8.45274 12.6854 8.31602 12.3489 8.31602 11.9985C8.31602 11.6481 8.45274 11.3116 8.69708 11.0605C8.94143 10.8094 9.27411 10.6636 9.62435 10.654H10.6173V6.671C10.6124 4.93085 11.2893 3.25801 12.503 2.01101C13.7168 0.764011 15.3707 0.0420976 17.1103 0C17.4632 0.0134095 17.7965 0.165007 18.0386 0.422073C18.2806 0.679139 18.4118 1.02106 18.4039 1.37403C18.3961 1.72701 18.2497 2.06273 17.9965 2.30875C17.7432 2.55476 17.4034 2.69134 17.0503 2.689C16.033 2.74509 15.076 3.18938 14.3766 3.93026C13.6772 4.67115 13.2888 5.65215 13.2913 6.671V10.658H15.7563C16.1131 10.658 16.4552 10.7997 16.7074 11.0519C16.9596 11.3042 17.1013 11.6463 17.1013 12.003C17.1013 12.3597 16.9596 12.7018 16.7074 12.9541C16.4552 13.2063 16.1131 13.348 15.7563 13.348V13.343ZM5.09935 22.658C5.09918 22.3809 5.16406 22.1076 5.28877 21.8601C5.41347 21.6126 5.59452 21.3978 5.81735 21.233C4.85777 21.0234 4.00918 20.4673 3.43397 19.6712C2.85876 18.875 2.59734 17.8947 2.69973 16.9179C2.80212 15.941 3.26113 15.0362 3.98892 14.3767C4.71671 13.7171 5.66217 13.3491 6.64435 13.343H8.54435C8.35102 13.1764 8.1959 12.97 8.08957 12.738C7.98324 12.506 7.9282 12.2537 7.9282 11.9985C7.9282 11.7433 7.98324 11.491 8.08957 11.259C8.1959 11.027 8.35102 10.8206 8.54435 10.654H6.64435C4.96704 10.662 3.35418 11.301 2.12661 12.444C0.899046 13.5871 0.146724 15.1503 0.019303 16.8228C-0.108118 18.4953 0.398699 20.1544 1.43894 21.4702C2.47918 22.786 3.9766 23.662 5.63335 23.924C5.46463 23.7591 5.33049 23.5622 5.2388 23.3448C5.14711 23.1274 5.0997 22.8939 5.09935 22.658ZM18.2753 0.075C18.4576 0.254737 18.5989 0.471763 18.6895 0.711204C18.7801 0.950645 18.8179 1.20684 18.8002 1.46224C18.7826 1.71763 18.7099 1.96619 18.5872 2.19088C18.4645 2.41557 18.2947 2.61107 18.0893 2.764C19.0551 2.96782 19.911 3.52236 20.4918 4.32047C21.0725 5.11858 21.3368 6.10361 21.2336 7.08523C21.1303 8.06684 20.667 8.97536 19.9329 9.63524C19.1989 10.2951 18.2464 10.6595 17.2593 10.658H16.8333C17.0264 10.8249 17.1813 11.0314 17.2874 11.2635C17.3935 11.4956 17.4485 11.7478 17.4485 12.003C17.4485 12.2582 17.3935 12.5104 17.2874 12.7425C17.1813 12.9746 17.0264 13.1811 16.8333 13.348H17.2593C18.3574 13.3428 19.4373 13.0667 20.4031 12.5443C21.369 12.0218 22.1911 11.2692 22.7965 10.3531C23.4019 9.43691 23.7719 8.38555 23.8737 7.29218C23.9756 6.19881 23.8061 5.0972 23.3803 4.085C22.9448 3.03484 22.2465 2.11438 21.3525 1.41211C20.4584 0.709844 19.3988 0.249383 18.2753 0.075Z" fill="url(#paint0_linear_99_53463)"/>
<defs>
<linearGradient id="paint0_linear_99_53463" x1="0.00233416" y1="24.0033" x2="23.9086" y2="24.0033" gradientUnits="userSpaceOnUse">
<stop stop-color="#3186C8"/>
<stop offset="0.18" stop-color="#269FCA"/>
<stop offset="0.38" stop-color="#1DB4CC"/>
<stop offset="0.5" stop-color="#1ABBCD"/>
<stop offset="1" stop-color="#6FC6AA"/>
</linearGradient>
</defs>
</svg>
