<svg preserveAspectRatio="none" width="100%" height="100%" overflow="visible" style="display: block;" viewBox="0 0 26 23" fill="none" xmlns="http://www.w3.org/2000/svg">
<g id="App icon">
<path id="&#243;&#177;&#138;&#141;" d="M18.4708 2.65344V3.94931H20.8V6.4H15.2C13.8745 6.4 12.8 7.47452 12.8 8.8H11.2V22.4H0V3.94931H2.32917V2.65344C2.32917 1.91295 2.54583 1.29587 2.97917 0.802204C3.44861 0.267401 3.99028 0 4.60417 0H6.93333C7.58333 0 8.125 0.267401 8.55833 0.802204C9.02778 1.29587 9.2625 1.91295 9.2625 2.65344V3.94931H11.5375V2.65344C11.5375 1.91295 11.7542 1.29587 12.1875 0.802204C12.6569 0.267401 13.2167 0 13.8667 0H16.1958C16.8097 0 17.3333 0.267401 17.7667 0.802204C18.2361 1.29587 18.4708 1.91295 18.4708 2.65344Z" fill="var(--fill-0, #50CEE1)"/>
<path id="&#243;&#177;&#138;&#136;" opacity="0.6" d="M24.1667 10.5388V9.70579C24.1667 9.22975 24.0222 8.83306 23.7333 8.5157C23.4667 8.1719 23.1444 8 22.7667 8H21.3333C20.9333 8 20.5889 8.1719 20.3 8.5157C20.0333 8.83306 19.9 9.22975 19.9 9.70579V10.5388H18.5V9.70579C18.5 9.22975 18.3556 8.83306 18.0667 8.5157C17.8 8.1719 17.4667 8 17.0667 8H15.6333C15.2556 8 14.9222 8.1719 14.6333 8.5157C14.3667 8.83306 14.2333 9.22975 14.2333 9.70579V10.5388H12.8V22.4H25.6V10.5388H24.1667Z" fill="var(--fill-0, #146DA6)"/>
</g>
</svg>
