<svg preserveAspectRatio="none" width="100%" height="100%" overflow="visible" style="display: block;" viewBox="0 0 28 28" fill="none" xmlns="http://www.w3.org/2000/svg">
<path id="Subtract" d="M14.0117 17.5205C14.0042 17.6794 14 17.8392 14 18C14 23.5228 18.4772 28 24 28H0V24.4795C1.33507e-05 23.2242 0.627582 22.078 1.88281 21.041C3.13816 19.9494 4.83037 19.1033 6.95898 18.5029C9.14222 17.848 11.4893 17.5205 14 17.5205C14.0039 17.5205 14.0078 17.5205 14.0117 17.5205ZM28 28H24C25.4226 28 26.7748 27.7005 28 27.165V28ZM14 0C15.9103 0 17.5476 0.682379 18.9121 2.04688C20.2766 3.4114 20.959 5.0761 20.959 7.04102C20.959 7.55474 20.9073 8.04821 20.8086 8.52246C18.1464 9.41858 15.987 11.4037 14.8574 13.9492C14.5779 13.9812 14.2923 14 14 14C12.0897 14 10.4524 13.3176 9.08789 11.9531C7.72339 10.5886 7.04103 8.95131 7.04102 7.04102C7.04102 5.0761 7.72337 3.4114 9.08789 2.04688C10.4524 0.682379 12.0897 0 14 0Z" fill="var(--fill-0, #50CEE1)"/>
</svg>
