<svg preserveAspectRatio="none" width="100%" height="100%" overflow="visible" style="display: block;" viewBox="0 0 25 26" fill="none" xmlns="http://www.w3.org/2000/svg">
<g id="Frame 1116606226">
<path id="&#243;&#177;&#129;&#156;" d="M11.8857 7.31429C13.219 7.31429 14.3429 7.77143 15.2571 8.68571C16.2095 9.6 16.7048 10.7048 16.7429 12L10.9143 16.9714C9.77143 16.7429 8.8381 16.1714 8.11429 15.2571C7.39048 14.3429 7.02857 13.3143 7.02857 12.1714C7.02857 10.8381 7.50476 9.69524 8.45714 8.74286C9.40952 7.79048 10.5524 7.31429 11.8857 7.31429ZM11.8857 14.6286C12.5714 14.6286 13.1429 14.4 13.6 13.9429C14.0952 13.4476 14.3429 12.8571 14.3429 12.1714C14.3429 11.4857 14.0952 10.9143 13.6 10.4571C13.1429 9.9619 12.5714 9.71429 11.8857 9.71429C11.2 9.71429 10.6095 9.9619 10.1143 10.4571C9.65714 10.9143 9.42857 11.4857 9.42857 12.1714C9.42857 12.8571 9.65714 13.4476 10.1143 13.9429C10.6095 14.4 11.2 14.6286 11.8857 14.6286ZM23.6571 8.17143C23.7333 8.32381 23.7524 8.47619 23.7143 8.62857C23.6762 8.78095 23.6 8.89524 23.4857 8.97143L20.9143 10.9714H18.4571C18.419 10.6286 18.3429 10.3048 18.2286 10L20.7429 8.11429L19.8286 6.57143L16.9143 7.77143C15.9238 6.62857 14.7048 5.90476 13.2571 5.6L12.8 2.4H10.9714L10.4571 5.54286C9.00952 5.84762 7.79048 6.57143 6.8 7.71429L3.88571 6.51429L2.97143 8.11429L5.54286 10C5.04762 11.4476 5.04762 12.8952 5.54286 14.3429L3.02857 16.2857L3.94286 17.8857L6.91429 16.6857C7.56191 17.4476 8.36191 18.019 9.31429 18.4L7.31429 20.1143C7.00952 19.9238 6.70476 19.7143 6.4 19.4857L3.37143 20.6857C3.18095 20.7619 3.00952 20.781 2.85714 20.7429C2.70476 20.6667 2.60952 20.5524 2.57143 20.4L0.114286 16.1714C0.0380952 16.019 0 15.8667 0 15.7143C0.0380952 15.5619 0.114286 15.4476 0.228571 15.3714L2.8 13.3714L2.74286 12.1714L2.8 10.9714L0.285714 8.97143C0.171429 8.85714 0.0952381 8.74286 0.0571429 8.62857C0.0571429 8.47619 0.0952381 8.32381 0.171429 8.17143L2.62857 3.94286C2.66667 3.82857 2.7619 3.75238 2.91429 3.71429C3.06667 3.6381 3.21905 3.6381 3.37143 3.71429L6.34286 4.91429C6.99048 4.41905 7.67619 4.01905 8.4 3.71429L8.85714 0.514286C8.85714 0.361905 8.91429 0.247619 9.02857 0.171429C9.14286 0.0571429 9.27619 0 9.42857 0H14.3429C14.4952 0 14.6286 0.0571429 14.7429 0.171429C14.8571 0.247619 14.9143 0.361905 14.9143 0.514286L15.3714 3.71429C16.1333 4.01905 16.819 4.41905 17.4286 4.91429L20.4571 3.71429C20.6095 3.6381 20.7619 3.6381 20.9143 3.71429C21.0667 3.75238 21.1619 3.82857 21.2 3.94286L23.6571 8.17143ZM11.8857 7.31429C13.219 7.31429 14.3429 7.77143 15.2571 8.68571C16.2095 9.6 16.7048 10.7048 16.7429 12L10.9143 16.9714C9.77143 16.7429 8.8381 16.1714 8.11429 15.2571C7.39048 14.3429 7.02857 13.3143 7.02857 12.1714C7.02857 10.8381 7.50476 9.69524 8.45714 8.74286C9.40952 7.79048 10.5524 7.31429 11.8857 7.31429ZM11.8857 14.6286C12.5714 14.6286 13.1429 14.4 13.6 13.9429C14.0952 13.4476 14.3429 12.8571 14.3429 12.1714C14.3429 11.4857 14.0952 10.9143 13.6 10.4571C13.1429 9.9619 12.5714 9.71429 11.8857 9.71429C11.2 9.71429 10.6095 9.9619 10.1143 10.4571C9.65714 10.9143 9.42857 11.4857 9.42857 12.1714C9.42857 12.8571 9.65714 13.4476 10.1143 13.9429C10.6095 14.4 11.2 14.6286 11.8857 14.6286ZM11.8857 7.31429C13.219 7.31429 14.3429 7.77143 15.2571 8.68571C16.2095 9.6 16.7048 10.7048 16.7429 12L10.9143 16.9714C9.77143 16.7429 8.8381 16.1714 8.11429 15.2571C7.39048 14.3429 7.02857 13.3143 7.02857 12.1714C7.02857 10.8381 7.50476 9.69524 8.45714 8.74286C9.40952 7.79048 10.5524 7.31429 11.8857 7.31429ZM11.8857 14.6286C12.5714 14.6286 13.1429 14.4 13.6 13.9429C14.0952 13.4476 14.3429 12.8571 14.3429 12.1714C14.3429 11.4857 14.0952 10.9143 13.6 10.4571C13.1429 9.9619 12.5714 9.71429 11.8857 9.71429C11.2 9.71429 10.6095 9.9619 10.1143 10.4571C9.65714 10.9143 9.42857 11.4857 9.42857 12.1714C9.42857 12.8571 9.65714 13.4476 10.1143 13.9429C10.6095 14.4 11.2 14.6286 11.8857 14.6286Z" fill="var(--fill-0, #50CEE1)"/>
<g id="&#243;&#177;&#129;&#156;_2" opacity="0.6">
<path d="M19.2 18.2857H15.5429V14.6286H19.2V12.1714L24.0571 16.4571L19.2 20.6857V18.2857Z" fill="var(--fill-0, #146DA6)"/>
<path d="M14.3429 19.4857H18V23.1429H14.3429V25.6L9.42857 21.3143L14.3429 17.0286V19.4857Z" fill="var(--fill-0, #146DA6)"/>
</g>
</g>
</svg>
