<svg preserveAspectRatio="none" width="100%" height="100%" overflow="visible" style="display: block;" viewBox="0 0 16 16" fill="none" xmlns="http://www.w3.org/2000/svg">
<path id="Copilot logo 1" d="M15.9883 14.0739L15.5371 8.30659C15.2208 4.2848 13.5236 2.3214 12.1557 1.38289L12.1135 1.3541C9.01908 -0.732127 4.87691 -0.375626 2.26585 2.20193L2.14922 2.32284C-0.380241 4.93254 -0.716223 9.05078 1.35006 12.1144L1.44606 12.2065V12.2526C2.40121 13.5893 4.36334 15.2274 8.30488 15.5374L13.9734 15.9807V15.9793L14.1274 15.9884C14.2518 16.0009 14.3487 16.0028 14.4394 15.9965C14.8412 15.9654 15.2199 15.7907 15.504 15.5057C15.7901 15.2202 15.9653 14.8416 15.996 14.44C16.0032 14.3508 16.0008 14.2534 15.9883 14.1325V14.0739ZM8.56935 12.1595C6.4661 11.9939 4.90331 11.3097 4.16847 10.2321C2.97093 8.46924 3.15476 6.12248 4.60572 4.65137L4.64364 4.61299C6.11668 3.15868 8.46615 2.97299 10.2296 4.1706C11.3081 4.90567 11.993 6.46842 12.1586 8.57096L12.4629 12.4632L8.56935 12.1595Z" fill="var(--fill-0, #2B3271)"/>
</svg>
