<svg preserveAspectRatio="none" width="100%" height="100%" overflow="visible" style="display: block;" viewBox="0 0 26 23" fill="none" xmlns="http://www.w3.org/2000/svg">
<g id="App icon">
<path id="&#243;&#176;&#128;&#132;" d="M11.2 0C12.7283 0 14.0382 0.545809 15.1298 1.63743C16.2214 2.72904 16.7673 3.62827 16.7673 5.2002C14.8008 5.7002 14.3008 6.13275 13.3008 7.2002C12.3008 8.7002 12.3008 9.7002 12.3008 11.2002C10.7725 11.2002 8.36179 10.6542 7.27018 9.56257C6.17856 8.47096 5.63275 7.16101 5.63275 5.63275C5.63275 4.06082 6.17856 2.72904 7.27018 1.63743C8.36179 0.545809 9.67173 0 11.2 0ZM11.2 14.0164C12.8008 14.2002 13.0979 14.2784 14.8008 14.8023C14.3343 15.2002 11.2 16.2002 9.80078 17.2002C8.80078 17.7002 8.30078 18.5793 8.30078 19.5836V22.4H0V19.5836C0 18.5793 0.502144 17.6624 1.50643 16.8327C2.51072 15.9595 3.86433 15.2827 5.56725 14.8023C7.31384 14.2784 9.19142 14.0164 11.2 14.0164Z" fill="var(--fill-0, #50CEE1)"/>
<path id="&#243;&#176;&#128;&#132;_2" opacity="0.6" d="M17.6 6.4C18.6916 6.4 19.6273 6.78986 20.407 7.56959C21.1867 8.34932 21.5766 9.30058 21.5766 10.4234C21.5766 11.515 21.1867 12.4507 20.407 13.2304C19.6273 14.0101 18.6916 14.4 17.6 14.4C16.5084 14.4 15.5727 14.0101 14.793 13.2304C14.0133 12.4507 13.6234 11.515 13.6234 10.4234C13.6234 9.30058 14.0133 8.34932 14.793 7.56959C15.5727 6.78986 16.5084 6.4 17.6 6.4ZM17.6 16.4117C19.0347 16.4117 20.3602 16.5988 21.5766 16.9731C22.8242 17.3162 23.8066 17.7996 24.524 18.4234C25.2413 19.016 25.6 19.671 25.6 20.3883V22.4H9.6V20.3883C9.6 19.671 9.95867 19.016 10.676 18.4234C11.3934 17.7996 12.3602 17.3162 13.5766 16.9731C14.8242 16.5988 16.1653 16.4117 17.6 16.4117Z" fill="var(--fill-0, #146DA6)"/>
</g>
</svg>
