<svg preserveAspectRatio="none" width="100%" height="100%" overflow="visible" style="display: block;" viewBox="0 0 27 24" fill="none" xmlns="http://www.w3.org/2000/svg">
<path id="&#243;&#177;&#146;&#148;" d="M10.625 17.3125V16H1.3125V21.3125C1.3125 22.0625 1.5625 22.7083 2.0625 23.25C2.60417 23.75 3.25 24 4 24H10.625C10.625 23.5694 10.625 23.4372 10.625 23C10.625 22.5628 10.625 21.75 10.625 21V20V19V18V17.3125ZM24 5.3125H18.625V2.6875L16 0H10.625L8 2.6875V5.3125H2.625C1.91667 5.3125 1.29167 5.58333 0.75 6.125C0.25 6.625 0 7.25 0 8V12C0 12.75 0.25 13.3958 0.75 13.9375C1.29167 14.4375 1.91667 14.6875 2.625 14.6875H10.625C10.625 13.2032 11.8282 12 13.3125 12H16.5L19.5 9H24C25 10 26 11 26.625 11.5601V8C26.625 7.25 26.3542 6.625 25.8125 6.125C25.3125 5.58333 24.7083 5.3125 24 5.3125ZM16 5.3125H10.625V2.6875H16V5.3125Z" fill="var(--fill-0, #50CEE1)"/>
</svg>
