<svg preserveAspectRatio="none" width="100%" height="100%" overflow="visible" style="display: block;" viewBox="0 0 1066 200" fill="none" xmlns="http://www.w3.org/2000/svg">
<path id="eightfold.ai" d="M52.8836 153.062C36.2836 153.062 23.3236 148.335 14.0036 138.882C4.68356 129.428 0.0168965 116.128 0.00356317 98.9816C-0.0914976 89.7973 1.71646 80.6928 5.31356 72.2416C8.74156 64.2154 14.407 57.3453 21.6336 52.4516C28.9669 47.4116 38.0136 44.8949 48.7736 44.9016C58.8469 44.9016 67.5536 47.2349 74.8936 51.9016C82.1259 56.4616 87.9275 62.9667 91.6336 70.6716C95.4789 78.6599 97.4327 87.4265 97.3436 96.2916C97.3828 97.5257 97.1651 98.7545 96.7043 99.9C96.2435 101.046 95.5496 102.083 94.6667 102.946C93.7838 103.809 92.7312 104.479 91.5755 104.914C90.4199 105.349 89.1865 105.539 87.9536 105.472H18.8036C19.8902 114.992 23.4269 122.408 29.4136 127.722C35.4002 133.035 43.7669 135.702 54.5136 135.722C59.5616 135.798 64.5997 135.25 69.5136 134.092C73.8528 132.982 78.0603 131.41 82.0636 129.402C83.2044 128.841 84.4625 128.559 85.7336 128.582C87.8572 128.56 89.9055 129.367 91.4436 130.832C92.2431 131.548 92.8766 132.43 93.2997 133.416C93.7229 134.402 93.9256 135.469 93.8936 136.542C93.8936 139.535 92.1269 142.052 88.5936 144.092C83.6302 146.935 78.3554 149.197 72.8736 150.832C67.7069 152.318 61.0436 153.062 52.8836 153.062ZM79.0036 90.4116C78.5902 83.7449 76.8536 78.1649 73.7936 73.6716C70.9922 69.4048 67.0778 65.9849 62.4736 63.7816C58.2166 61.6958 53.539 60.6115 48.7986 60.6115C44.0581 60.6115 39.3805 61.6958 35.1236 63.7816C30.5356 65.9691 26.6496 69.3944 23.9036 73.6716C20.9103 78.1649 19.2102 83.7449 18.8036 90.4116H79.0036ZM130.624 25.7116C127.866 25.7037 125.223 24.6061 123.271 22.658C121.319 20.7099 120.217 18.0693 120.204 15.3116V14.4916C120.214 11.7357 121.313 9.09547 123.261 7.14578C125.208 5.19609 127.848 4.09478 130.604 4.08161H131.834C134.59 4.09478 137.229 5.19609 139.176 7.14578C141.124 9.09547 142.223 11.7357 142.234 14.4916V15.3116C142.22 18.0658 141.121 20.7035 139.173 22.651C137.225 24.5985 134.588 25.6985 131.834 25.7116H130.624ZM131.034 152.002C129.823 152.019 128.622 151.794 127.5 151.339C126.378 150.883 125.359 150.208 124.503 149.352C123.647 148.496 122.972 147.477 122.517 146.355C122.062 145.234 121.836 144.032 121.854 142.822V55.3116C121.831 54.0841 122.054 52.8645 122.509 51.7243C122.964 50.5841 123.642 49.5462 124.504 48.6716C125.34 47.7827 126.353 47.0788 127.477 46.6052C128.602 46.1316 129.813 45.8987 131.034 45.9216C132.279 45.8768 133.52 46.0891 134.679 46.5452C135.839 47.0012 136.892 47.6913 137.773 48.5723C138.654 49.4533 139.344 50.5064 139.8 51.6659C140.256 52.8254 140.468 54.0664 140.424 55.3116V142.862C140.447 144.083 140.213 145.295 139.738 146.42C139.263 147.545 138.556 148.558 137.664 149.392C136.788 150.246 135.75 150.917 134.612 151.365C133.473 151.813 132.257 152.03 131.034 152.002ZM221.204 200.002C213.147 199.98 205.125 198.953 197.324 196.942C190.416 195.332 183.758 192.792 177.534 189.392C175.087 187.892 173.86 185.508 173.854 182.242C173.855 180.074 174.697 177.991 176.204 176.432C176.932 175.611 177.829 174.958 178.834 174.518C179.839 174.078 180.927 173.861 182.024 173.882C183.287 173.919 184.532 174.194 185.694 174.692C196.15 179.891 207.686 182.55 219.364 182.452C240.17 182.452 250.577 171.362 250.584 149.182V135.512C240.944 145.838 229.324 151.002 215.724 151.002C207.556 150.971 199.525 148.909 192.354 145.002C184.615 140.803 178.162 134.582 173.684 127.002C168.784 119.042 166.334 109.348 166.334 97.9216C166.334 86.4949 168.784 76.8016 173.684 68.8416C178.162 61.2616 184.615 55.0402 192.354 50.8416C199.524 46.9297 207.556 44.8675 215.724 44.8416C229.324 44.8416 240.954 50.0116 250.614 60.3516V55.2516C250.594 54.0245 250.818 52.8057 251.273 51.6659C251.728 50.526 252.404 49.4879 253.264 48.6116C254.1 47.7228 255.113 47.0188 256.237 46.5452C257.362 46.0716 258.573 45.8387 259.794 45.8616C261.033 45.8589 262.262 46.1019 263.407 46.5763C264.553 47.0508 265.593 47.7474 266.468 48.626C267.342 49.5045 268.035 50.5477 268.504 51.6952C268.974 52.8426 269.212 54.0718 269.204 55.3116V146.532C269.204 163.672 265.054 176.868 256.754 186.122C248.454 195.375 236.604 200.002 221.204 200.002ZM219.564 134.082C225.477 134.208 231.323 132.802 236.534 130.002C241.742 127.047 246.486 123.34 250.614 119.002V77.0016C246.486 72.6628 241.742 68.9562 236.534 66.0016C231.332 63.2061 225.497 61.8008 219.594 61.9216C209.394 61.9216 201.06 65.0149 194.594 71.2016C188.127 77.3883 184.897 86.3216 184.904 98.0016C184.904 109.702 188.137 118.648 194.604 124.842C201.07 131.035 209.4 134.115 219.594 134.082H219.564ZM310.564 152.082C309.353 152.098 308.152 151.871 307.03 151.416C305.908 150.96 304.889 150.285 304.033 149.429C303.176 148.574 302.5 147.556 302.043 146.434C301.586 145.313 301.359 144.112 301.374 142.902V10.4116C301.352 9.18489 301.576 7.96626 302.033 6.82757C302.49 5.68889 303.17 4.65321 304.034 3.78161C304.87 2.87794 305.89 2.16269 307.024 1.68337C308.159 1.20406 309.382 0.971656 310.614 1.00161C313.101 1.00953 315.483 2.0017 317.241 3.76123C318.999 5.52077 319.988 7.90458 319.994 10.3916V63.6716C324.807 58.2497 330.459 53.6345 336.734 50.0016C342.734 46.6016 349.807 44.9016 357.954 44.9016C364.827 44.7352 371.601 46.5771 377.444 50.2016C382.946 53.7372 387.333 58.7619 390.094 64.6916C393.06 71.0119 394.56 77.9204 394.484 84.9016V142.902C394.507 144.123 394.273 145.335 393.798 146.46C393.323 147.585 392.616 148.598 391.724 149.432C390.85 150.292 389.814 150.969 388.676 151.424C387.537 151.879 386.319 152.103 385.094 152.082C383.883 152.099 382.682 151.874 381.56 151.419C380.438 150.963 379.419 150.288 378.563 149.432C377.707 148.576 377.032 147.557 376.577 146.435C376.122 145.314 375.896 144.112 375.914 142.902V86.9416C375.914 70.3416 368.43 62.0416 353.464 62.0416C346.983 61.9478 340.623 63.7973 335.204 67.3516C329.408 71.274 324.273 76.0944 319.994 81.6316V142.862C320.016 144.082 319.784 145.293 319.31 146.418C318.836 147.542 318.132 148.555 317.244 149.392C316.367 150.245 315.329 150.915 314.191 151.363C313.053 151.811 311.837 152.028 310.614 152.002L310.564 152.082ZM459.114 153.082C439.254 153.082 429.324 144.102 429.324 126.142V62.8616H414.884C414.375 62.8642 413.871 62.7664 413.4 62.5735C412.93 62.3807 412.502 62.0968 412.141 61.7381C411.781 61.3794 411.495 60.953 411.299 60.4834C411.104 60.0138 411.004 59.5102 411.004 59.0016C411.011 58.3183 411.182 57.6468 411.502 57.0431C411.822 56.4394 412.282 55.9211 412.844 55.5316L440.594 28.3916C441.461 27.3431 442.709 26.6814 444.064 26.5516C444.585 26.5444 445.102 26.6506 445.579 26.863C446.055 27.0754 446.48 27.3888 446.824 27.7816C447.556 28.5484 447.958 29.5716 447.944 30.6316V46.9416H471.004C472.573 46.948 474.105 47.4156 475.411 48.2863C476.716 49.1571 477.736 50.3925 478.345 51.8388C478.954 53.2851 479.123 54.8784 478.833 56.4205C478.543 57.9626 477.806 59.3853 476.714 60.5116C475.98 61.2826 475.093 61.8903 474.109 62.2953C473.125 62.7002 472.067 62.8932 471.004 62.8616H447.944V124.492C447.944 129.825 449.204 133.192 451.724 134.592C454.644 136.117 457.911 136.855 461.204 136.732C463.972 136.728 466.725 136.317 469.374 135.512C469.914 135.372 470.494 135.242 471.104 135.102C471.878 134.955 472.665 134.888 473.454 134.902C474.403 134.904 475.342 135.094 476.218 135.462C477.093 135.829 477.887 136.366 478.554 137.042C479.273 137.701 479.845 138.505 480.232 139.401C480.618 140.298 480.809 141.266 480.794 142.242C480.794 145.372 479.234 147.762 476.104 149.392C470.806 151.835 465.037 153.088 459.204 153.062L459.114 153.082ZM518.114 152.082C516.903 152.098 515.702 151.871 514.58 151.416C513.458 150.96 512.439 150.285 511.583 149.429C510.726 148.574 510.05 147.556 509.593 146.434C509.137 145.313 508.909 144.112 508.924 142.902V62.9016H496.924C494.802 62.9016 492.767 62.0588 491.267 60.5585C489.766 59.0582 488.924 57.0233 488.924 54.9016C488.891 53.8375 489.083 52.7784 489.486 51.793C489.889 50.8076 490.495 49.918 491.264 49.1816C492.005 48.4572 492.882 47.8863 493.845 47.5019C494.808 47.1175 495.837 46.9271 496.874 46.9416H508.874V35.1016C508.874 26.9416 510.337 20.2416 513.264 15.0016C515.829 10.1229 519.815 6.13737 524.694 3.57161C529.292 1.207 534.392 -0.0173994 539.564 0.00161072C545.722 -0.0542507 551.807 1.34361 557.324 4.08161C558.686 4.77203 559.844 5.80614 560.684 7.08161C561.549 8.30359 562.014 9.76416 562.014 11.2616C562.016 12.2667 561.82 13.2624 561.435 14.191C561.051 15.1196 560.486 15.9628 559.774 16.6716C559.102 17.4118 558.282 18.0019 557.367 18.4034C556.452 18.8049 555.463 19.0088 554.464 19.0016C552.881 18.9925 551.306 18.7876 549.774 18.3916C546.504 17.9816 544.674 17.7816 544.264 17.7816C538.684 17.7816 534.5 19.0716 531.714 21.6516C528.927 24.2316 527.53 28.9249 527.524 35.7316V46.9416H553.034C554.604 46.946 556.137 47.4122 557.444 48.2822C558.751 49.1522 559.773 50.3875 560.383 51.8342C560.993 53.2809 561.164 54.8751 560.874 56.4181C560.584 57.9611 559.847 59.3847 558.754 60.5116C558.018 61.2818 557.128 61.889 556.143 62.2938C555.158 62.6986 554.098 62.8921 553.034 62.8616H527.524V142.862C527.549 144.082 527.317 145.294 526.843 146.419C526.37 147.544 525.664 148.557 524.774 149.392C523.897 150.245 522.859 150.915 521.721 151.363C520.583 151.811 519.367 152.028 518.144 152.002L518.114 152.082ZM619.114 153.082C608.634 153.082 599.45 150.838 591.564 146.352C583.73 141.925 577.378 135.284 573.304 127.262C569.017 119.028 566.874 109.608 566.874 99.0016C566.874 88.3949 569.017 78.9716 573.304 70.7316C577.389 62.7012 583.755 56.0565 591.604 51.6316C599.49 47.1449 608.69 44.9016 619.204 44.9016C629.544 44.9016 638.657 47.1449 646.544 51.6316C654.388 56.0754 660.77 62.7046 664.914 70.7116C669.26 78.9516 671.437 88.3749 671.444 98.9816C671.45 109.588 669.274 119.008 664.914 127.242C660.773 135.253 654.39 141.886 646.544 146.332C638.624 150.825 629.51 153.068 619.204 153.062L619.114 153.082ZM619.114 136.142C624.68 136.142 630.166 134.812 635.114 132.262C640.446 129.489 644.861 125.231 647.824 120.002C651.157 114.422 652.824 107.348 652.824 98.7816C652.824 90.3416 651.157 83.3416 647.824 77.7816C644.9 72.5765 640.511 68.3448 635.204 65.6116C630.234 63.1323 624.757 61.8417 619.204 61.8416C613.578 61.8222 608.024 63.113 602.984 65.6116C597.681 68.3171 593.309 72.5489 590.434 77.7616C587.167 83.3283 585.534 90.3283 585.534 98.7616C585.534 107.328 587.167 114.402 590.434 119.982C593.324 125.205 597.689 129.462 602.984 132.222C608.001 134.798 613.563 136.136 619.204 136.122L619.114 136.142ZM706.494 152.002C705.283 152.018 704.082 151.791 702.96 151.336C701.838 150.88 700.819 150.205 699.963 149.349C699.106 148.494 698.43 147.476 697.973 146.354C697.516 145.233 697.289 144.032 697.304 142.822V10.4116C697.282 9.18489 697.506 7.96626 697.963 6.82757C698.42 5.68889 699.1 4.65321 699.964 3.78161C700.795 2.88532 701.807 2.17449 702.932 1.69548C704.057 1.21646 705.271 0.980033 706.494 1.00161C707.738 0.958253 708.978 1.17156 710.136 1.62824C711.294 2.08492 712.346 2.77519 713.226 3.65607C714.106 4.53695 714.795 5.58957 715.251 6.74836C715.706 7.90716 715.918 9.14732 715.874 10.3916V142.862C715.899 144.082 715.667 145.294 715.193 146.419C714.72 147.544 714.014 148.557 713.124 149.392C712.247 150.245 711.209 150.915 710.071 151.363C708.933 151.811 707.717 152.028 706.494 152.002ZM791.174 153.002C782.746 153.012 774.467 150.794 767.174 146.572C759.445 142.118 753.09 135.624 748.804 127.802C744.137 119.568 741.804 109.942 741.804 98.9216C741.804 87.9016 744.137 78.2749 748.804 70.0416C753.107 62.237 759.472 55.7648 767.204 51.3316C774.497 47.1093 782.776 44.891 791.204 44.9016C804.537 44.9016 816.17 50.0716 826.104 60.4116V10.4116C826.067 9.1586 826.293 7.91182 826.767 6.75117C827.24 5.59052 827.951 4.5416 828.854 3.67161C829.727 2.81129 830.763 2.1338 831.902 1.67878C833.04 1.22376 834.258 1.00034 835.484 1.02161C836.705 0.99623 837.918 1.22895 839.043 1.70456C840.168 2.18017 841.181 2.88795 842.014 3.78161C842.877 4.65321 843.557 5.68889 844.014 6.82757C844.471 7.96626 844.695 9.18489 844.674 10.4116V142.862C844.688 144.072 844.461 145.273 844.004 146.394C843.547 147.515 842.871 148.534 842.014 149.389C841.158 150.245 840.139 150.92 839.017 151.376C837.895 151.831 836.694 152.058 835.484 152.042C834.258 152.063 833.04 151.839 831.902 151.384C830.763 150.929 829.727 150.252 828.854 149.392C827.965 148.555 827.261 147.542 826.787 146.418C826.314 145.293 826.081 144.082 826.104 142.862V137.552C816.17 147.892 804.537 153.062 791.204 153.062L791.174 153.002ZM793.834 135.652C799.966 135.682 806.016 134.249 811.484 131.472C816.984 128.686 821.929 124.917 826.074 120.352V77.5516C821.929 72.9861 816.984 69.2174 811.484 66.4316C806.017 63.6512 799.966 62.2148 793.834 62.2416C783.76 62.2416 775.664 65.4416 769.544 71.8416C763.424 78.2416 760.364 87.2949 760.364 99.0016C760.364 110.702 763.424 119.748 769.544 126.142C775.664 132.535 783.76 135.725 793.834 135.712V135.652ZM886.273 151.572C883.245 151.561 880.344 150.353 878.203 148.212C876.062 146.071 874.854 143.17 874.844 140.142V139.002C874.859 135.975 876.069 133.077 878.209 130.937C880.349 128.797 883.247 127.587 886.273 127.572H888.273C891.305 127.579 894.211 128.785 896.358 130.926C898.504 133.067 899.718 135.97 899.734 139.002V140.222C899.723 143.248 898.517 146.148 896.378 148.289C894.239 150.43 891.34 151.638 888.314 151.652L886.273 151.572ZM956.464 153.002C950.714 153.055 945.027 151.8 939.834 149.332C934.849 146.986 930.637 143.268 927.694 138.612C924.655 133.755 923.095 128.119 923.204 122.392C923.204 112.325 927.183 104.298 935.143 98.3116C943.103 92.3249 954.77 89.3249 970.143 89.3116H994.844V87.6816C994.844 78.7016 992.63 72.2383 988.204 68.2916C983.777 64.3449 976.874 62.3716 967.494 62.3716C962.875 62.3229 958.262 62.7316 953.724 63.5916C949.197 64.5477 944.732 65.7766 940.354 67.2716C939.489 67.5103 938.6 67.6478 937.704 67.6816C936.712 67.6892 935.729 67.4935 934.816 67.1065C933.902 66.7195 933.078 66.1495 932.393 65.4316C931.665 64.7141 931.09 63.8553 930.705 62.9078C930.32 61.9603 930.132 60.9442 930.154 59.9216C930.154 56.2549 931.92 53.6683 935.454 52.1616C946.607 47.356 958.619 44.8592 970.764 44.8216C980.144 44.8216 988.067 46.7249 994.534 50.5316C1000.64 53.9663 1005.6 59.1109 1008.81 65.3316C1011.89 71.4347 1013.47 78.1855 1013.41 85.0216V142.782C1013.44 144.003 1013.2 145.215 1012.73 146.34C1012.25 147.465 1011.55 148.478 1010.65 149.312C1009.78 150.172 1008.74 150.849 1007.61 151.304C1006.47 151.759 1005.25 151.983 1004.02 151.962C1002.81 151.979 1001.61 151.754 1000.49 151.299C999.368 150.843 998.349 150.168 997.493 149.312C996.637 148.456 995.962 147.437 995.507 146.315C995.052 145.194 994.826 143.992 994.844 142.782V137.472C984.764 147.865 971.97 153.062 956.464 153.062V153.002ZM963.404 136.672C969.458 136.653 975.416 135.149 980.754 132.292C986.081 129.553 990.855 125.85 994.834 121.372V104.292H972.584C952.044 104.292 941.773 109.665 941.773 120.412C941.688 122.63 942.092 124.839 942.956 126.883C943.82 128.928 945.123 130.757 946.773 132.242C950.107 135.242 955.65 136.738 963.404 136.732V136.672ZM1053.4 25.6716C1050.65 25.6585 1048.01 24.5585 1046.06 22.611C1044.12 20.6635 1043.02 18.0258 1043 15.2716V14.4516C1043.01 11.6957 1044.11 9.05547 1046.06 7.10578C1048.01 5.15609 1050.65 4.05478 1053.4 4.04161H1054.63C1057.39 4.05478 1060.03 5.15609 1061.98 7.10578C1063.92 9.05547 1065.02 11.6957 1065.03 14.4516V15.2716C1065.02 18.0258 1063.92 20.6635 1061.97 22.611C1060.03 24.5585 1057.39 25.6585 1054.63 25.6716H1053.4ZM1053.8 152.002C1052.59 152.019 1051.39 151.794 1050.27 151.339C1049.15 150.883 1048.13 150.208 1047.27 149.352C1046.42 148.496 1045.74 147.477 1045.29 146.355C1044.83 145.234 1044.61 144.032 1044.62 142.822V55.3116C1044.6 54.0841 1044.82 52.8645 1045.28 51.7243C1045.73 50.5841 1046.41 49.5462 1047.27 48.6716C1048.11 47.7827 1049.12 47.0788 1050.25 46.6052C1051.37 46.1316 1052.58 45.8987 1053.8 45.9216C1055.05 45.8783 1056.29 46.0916 1057.45 46.5482C1058.61 47.0048 1059.66 47.6949 1060.54 48.5756C1061.42 49.4563 1062.11 50.5088 1062.57 51.6676C1063.02 52.8265 1063.24 54.0668 1063.19 55.3116V142.862C1063.22 144.083 1062.98 145.295 1062.51 146.42C1062.03 147.545 1061.33 148.558 1060.43 149.392C1059.56 150.246 1058.52 150.917 1057.38 151.365C1056.24 151.813 1055.03 152.03 1053.8 152.002V152.002Z" fill="var(--fill-0, #1A212E)"/>
</svg>
