<svg preserveAspectRatio="none" width="100%" height="100%" overflow="visible" style="display: block;" viewBox="0 0 13 16" fill="none" xmlns="http://www.w3.org/2000/svg">
<path id="Clicking hand" opacity="0.6" d="M4.33333 3.54167C4.33333 3.29167 4.41667 3.08333 4.58333 2.91667C4.77778 2.75 5 2.66667 5.25 2.66667C5.5 2.66667 5.70833 2.75 5.875 2.91667C6.04167 3.08333 6.125 3.29167 6.125 3.54167V7.5L7.20833 7.625L11.5833 9.58333C11.8333 9.69444 12.0139 9.86111 12.125 10.0833C12.2639 10.2778 12.3333 10.5139 12.3333 10.7917V14.6667C12.3333 15.0278 12.1944 15.3333 11.9167 15.5833C11.6667 15.8333 11.3611 15.9722 11 16H5.25C4.88889 16 4.58333 15.8611 4.33333 15.5833L0 11.875L0.666667 11.1667C0.833333 11 1.04167 10.9167 1.29167 10.9167H1.5L4.33333 12.4167V3.54167ZM5.25 0C6.22222 0 7.05556 0.347222 7.75 1.04167C8.44444 1.73611 8.79167 2.56944 8.79167 3.54167C8.79167 4.20833 8.625 4.81944 8.29167 5.375C7.98611 5.90278 7.55556 6.31944 7 6.625V5.54167C7.61111 5.01389 7.91667 4.36111 7.91667 3.58333C7.91667 2.80556 7.65278 2.16667 7.125 1.66667C6.59722 1.13889 5.95833 0.875 5.20833 0.875C4.48611 0.875 3.86111 1.13889 3.33333 1.66667C2.83333 2.16667 2.58333 2.80556 2.58333 3.58333C2.58333 4.36111 2.875 5.01389 3.45833 5.54167V6.625C2.90278 6.31944 2.45833 5.90278 2.125 5.375C1.81944 4.81944 1.66667 4.20833 1.66667 3.54167C1.66667 2.56944 2.01389 1.73611 2.70833 1.04167C3.40278 0.347222 4.25 0 5.25 0Z" fill="var(--fill-0, #146DA6)"/>
</svg>
