<svg preserveAspectRatio="none" width="100%" height="100%" overflow="visible" style="display: block;" viewBox="0 0 23 23" fill="none" xmlns="http://www.w3.org/2000/svg">
<path id="Subtract" d="M9.62109 15.5068V20.3135L13.4551 22.4004H0V19.584C0 18.5797 0.502547 17.6626 1.50684 16.833C2.51111 15.9598 3.86452 15.283 5.56738 14.8027C6.19064 14.6158 6.83069 14.463 7.4873 14.3428L9.62109 15.5068ZM22.4004 22.4004H20.1455L22.4004 21.1729V22.4004ZM22.3799 19.25V19.3623H22.3789V19.2402C22.3793 19.2435 22.3795 19.2467 22.3799 19.25ZM11.2002 0C12.7284 4.64615e-05 14.0383 0.546124 15.1299 1.6377C16.2214 2.72928 16.7676 4.06096 16.7676 5.63281C16.7676 5.82915 16.7573 6.0218 16.7393 6.21094L8.68066 10.6055C8.17626 10.3438 7.70556 9.99753 7.27051 9.5625C6.1789 8.4709 5.63283 7.16105 5.63281 5.63281C5.63281 4.06088 6.17889 2.72931 7.27051 1.6377C8.36212 0.546098 9.67194 0 11.2002 0Z" fill="var(--fill-0, #50CEE1)"/>
</svg>
