<svg preserveAspectRatio="none" width="100%" height="100%" overflow="visible" style="display: block;" viewBox="0 0 22 20" fill="none" xmlns="http://www.w3.org/2000/svg">
<path id="Large briefcase" d="M8.5 13.85V12.8H1.05V17.05C1.05 17.65 1.25 18.1667 1.65 18.6C2.08333 19 2.6 19.2 3.2 19.2H8.5C8.5 18.8555 8.5 18.7497 8.5 18.4C8.5 18.0503 8.5 17.4 8.5 16.8V16V15.2V14.4V13.85ZM19.2 4.25H14.9V2.15L12.8 0H8.5L6.4 2.15V4.25H2.1C1.53333 4.25 1.03333 4.46667 0.6 4.9C0.2 5.3 0 5.8 0 6.4V9.6C0 10.2 0.2 10.7167 0.6 11.15C1.03333 11.55 1.53333 11.75 2.1 11.75H8.5C8.5 10.5626 9.46259 9.6 10.65 9.6H13.2L15.6 7.2H19.2C20 8 20.8 8.8 21.3 9.24808V6.4C21.3 5.8 21.0833 5.3 20.65 4.9C20.25 4.46667 19.7667 4.25 19.2 4.25ZM12.8 4.25H8.5V2.15H12.8V4.25Z" fill="var(--fill-0, #50CEE1)"/>
</svg>
