<svg preserveAspectRatio="none" width="100%" height="100%" overflow="visible" style="display: block;" viewBox="0 0 107 20" fill="none" xmlns="http://www.w3.org/2000/svg">
<path id="eightfold.ai" d="M5.28836 15.3062C3.62836 15.3062 2.33236 14.8335 1.40036 13.8882C0.468356 12.9428 0.00168965 11.6128 0.000356317 9.89816C-0.00914976 8.97973 0.171646 8.06928 0.531356 7.22416C0.874156 6.42154 1.4407 5.73453 2.16336 5.24516C2.89669 4.74116 3.80136 4.48949 4.87736 4.49016C5.88469 4.49016 6.75536 4.72349 7.48936 5.19016C8.21259 5.64616 8.79275 6.29667 9.16336 7.06716C9.54789 7.86599 9.74327 8.74265 9.73436 9.62916C9.73828 9.75257 9.71651 9.87545 9.67043 9.99C9.62435 10.1046 9.55496 10.2083 9.46667 10.2946C9.37838 10.3809 9.27312 10.4479 9.15755 10.4914C9.04199 10.5349 8.91865 10.5539 8.79536 10.5472H1.88036C1.98902 11.4992 2.34269 12.2408 2.94136 12.7722C3.54002 13.3035 4.37669 13.5702 5.45136 13.5722C5.95616 13.5798 6.45997 13.525 6.95136 13.4092C7.38528 13.2982 7.80603 13.141 8.20636 12.9402C8.32044 12.8841 8.44625 12.8559 8.57336 12.8582C8.78572 12.856 8.99055 12.9367 9.14436 13.0832C9.22431 13.1548 9.28766 13.243 9.32997 13.3416C9.37229 13.4402 9.39256 13.5469 9.38936 13.6542C9.38936 13.9535 9.21269 14.2052 8.85936 14.4092C8.36302 14.6935 7.83554 14.9197 7.28736 15.0832C6.77069 15.2318 6.10436 15.3062 5.28836 15.3062ZM7.90036 9.04116C7.85902 8.37449 7.68536 7.81649 7.37936 7.36716C7.09922 6.94048 6.70778 6.59849 6.24736 6.37816C5.82166 6.16958 5.3539 6.06115 4.87986 6.06115C4.40581 6.06115 3.93805 6.16958 3.51236 6.37816C3.05356 6.59691 2.66496 6.93944 2.39036 7.36716C2.09103 7.81649 1.92102 8.37449 1.88036 9.04116H7.90036ZM13.0624 2.57116C12.7866 2.57037 12.5223 2.46061 12.3271 2.2658C12.1319 2.07099 12.0217 1.80693 12.0204 1.53116V1.44916C12.0214 1.17357 12.1313 0.909547 12.3261 0.714578C12.5208 0.519609 12.7848 0.409478 13.0604 0.408161H13.1834C13.459 0.409478 13.7229 0.519609 13.9176 0.714578C14.1124 0.909547 14.2223 1.17357 14.2234 1.44916V1.53116C14.222 1.80658 14.1121 2.07035 13.9173 2.2651C13.7225 2.45985 13.4588 2.56985 13.1834 2.57116H13.0624ZM13.1034 15.2002C12.9823 15.2019 12.8622 15.1794 12.75 15.1339C12.6378 15.0883 12.5359 15.0208 12.4503 14.9352C12.3647 14.8496 12.2972 14.7477 12.2517 14.6355C12.2062 14.5234 12.1836 14.4032 12.1854 14.2822V5.53116C12.1831 5.40841 12.2054 5.28645 12.2509 5.17243C12.2964 5.05841 12.3642 4.95462 12.4504 4.86716C12.534 4.77828 12.6353 4.70788 12.7477 4.66052C12.8602 4.61316 12.9813 4.58987 13.1034 4.59216C13.2279 4.58768 13.352 4.60891 13.4679 4.65452C13.5839 4.70012 13.6892 4.76913 13.7773 4.85723C13.8654 4.94533 13.9344 5.05064 13.98 5.16659C14.0256 5.28254 14.0468 5.40665 14.0424 5.53116V14.2862C14.0447 14.4083 14.0213 14.5295 13.9738 14.642C13.9263 14.7545 13.8556 14.8558 13.7664 14.9392C13.6788 15.0246 13.575 15.0917 13.4612 15.1365C13.3473 15.1813 13.2257 15.203 13.1034 15.2002ZM22.1204 20.0002C21.3147 19.998 20.5125 19.8953 19.7324 19.6942C19.0416 19.5332 18.3758 19.2792 17.7534 18.9392C17.5087 18.7892 17.386 18.5508 17.3854 18.2242C17.3855 18.0074 17.4697 17.7991 17.6204 17.6432C17.6932 17.5611 17.7829 17.4958 17.8834 17.4518C17.9839 17.4078 18.0927 17.3861 18.2024 17.3882C18.3287 17.3919 18.4532 17.4194 18.5694 17.4692C19.615 17.9891 20.7686 18.255 21.9364 18.2452C24.017 18.2452 25.0577 17.1362 25.0584 14.9182V13.5512C24.0944 14.5838 22.9324 15.1002 21.5724 15.1002C20.7556 15.0971 19.9525 14.8909 19.2354 14.5002C18.4615 14.0803 17.8162 13.4582 17.3684 12.7002C16.8784 11.9042 16.6334 10.9348 16.6334 9.79216C16.6334 8.64949 16.8784 7.68016 17.3684 6.88416C17.8162 6.12616 18.4615 5.50402 19.2354 5.08416C19.9524 4.69297 20.7556 4.48675 21.5724 4.48416C22.9324 4.48416 24.0954 5.00116 25.0614 6.03516V5.52516C25.0594 5.40245 25.0818 5.28057 25.1273 5.16659C25.1728 5.0526 25.2404 4.94879 25.3264 4.86116C25.41 4.77228 25.5113 4.70188 25.6237 4.65452C25.7362 4.60716 25.8573 4.58387 25.9794 4.58616C26.1033 4.58589 26.2262 4.61019 26.3407 4.65763C26.4553 4.70508 26.5593 4.77474 26.6468 4.8626C26.7342 4.95045 26.8035 5.05477 26.8504 5.16952C26.8974 5.28426 26.9212 5.40718 26.9204 5.53116V14.6532C26.9204 16.3672 26.5054 17.6868 25.6754 18.6122C24.8454 19.5375 23.6604 20.0002 22.1204 20.0002ZM21.9564 13.4082C22.5477 13.4208 23.1323 13.2802 23.6534 13.0002C24.1742 12.7047 24.6486 12.334 25.0614 11.9002V7.70016C24.6486 7.26628 24.1742 6.89562 23.6534 6.60016C23.1332 6.32061 22.5497 6.18008 21.9594 6.19216C20.9394 6.19216 20.106 6.50149 19.4594 7.12016C18.8127 7.73883 18.4897 8.63216 18.4904 9.80016C18.4904 10.9702 18.8137 11.8648 19.4604 12.4842C20.107 13.1035 20.94 13.4115 21.9594 13.4082H21.9564ZM31.0564 15.2082C30.9353 15.2098 30.8152 15.1871 30.703 15.1416C30.5908 15.096 30.4889 15.0285 30.4033 14.9429C30.3176 14.8574 30.25 14.7556 30.2043 14.6434C30.1586 14.5313 30.1359 14.4112 30.1374 14.2902V1.04116C30.1352 0.918489 30.1576 0.796626 30.2033 0.682757C30.249 0.568889 30.317 0.465321 30.4034 0.378161C30.487 0.287794 30.589 0.216269 30.7024 0.168337C30.8159 0.120406 30.9382 0.0971656 31.0614 0.100161C31.3101 0.100953 31.5483 0.20017 31.7241 0.376123C31.8999 0.552077 31.9988 0.790458 31.9994 1.03916V6.36716C32.4807 5.82497 33.0459 5.36345 33.6734 5.00016C34.2734 4.66016 34.9807 4.49016 35.7954 4.49016C36.4827 4.47352 37.1601 4.65771 37.7444 5.02016C38.2946 5.37372 38.7333 5.87619 39.0094 6.46916C39.306 7.10119 39.456 7.79204 39.4484 8.49016V14.2902C39.4507 14.4123 39.4274 14.5335 39.3798 14.646C39.3323 14.7585 39.2616 14.8598 39.1724 14.9432C39.085 15.0292 38.9814 15.0969 38.8676 15.1424C38.7537 15.1879 38.6319 15.2103 38.5094 15.2082C38.3883 15.2099 38.2682 15.1874 38.156 15.1419C38.0438 15.0963 37.9419 15.0288 37.8563 14.9432C37.7707 14.8576 37.7032 14.7557 37.6577 14.6435C37.6122 14.5314 37.5896 14.4112 37.5914 14.2902V8.69416C37.5914 7.03416 36.843 6.20416 35.3464 6.20416C34.6983 6.19478 34.0623 6.37973 33.5204 6.73516C32.9408 7.1274 32.4273 7.60944 31.9994 8.16316V14.2862C32.0016 14.4082 31.9784 14.5293 31.931 14.6418C31.8836 14.7542 31.8132 14.8555 31.7244 14.9392C31.6367 15.0245 31.5329 15.0915 31.4191 15.1363C31.3053 15.1811 31.1837 15.2028 31.0614 15.2002L31.0564 15.2082ZM45.9114 15.3082C43.9254 15.3082 42.9324 14.4102 42.9324 12.6142V6.28616H41.4884C41.4375 6.28642 41.3871 6.27664 41.34 6.25735C41.293 6.23807 41.2502 6.20968 41.2141 6.17381C41.1781 6.13794 41.1495 6.0953 41.1299 6.04834C41.1104 6.00138 41.1004 5.95102 41.1004 5.90016C41.1011 5.83183 41.1182 5.76468 41.1502 5.70431C41.1822 5.64394 41.2282 5.59211 41.2844 5.55316L44.0594 2.83916C44.1461 2.73431 44.2709 2.66814 44.4064 2.65516C44.4585 2.65444 44.5102 2.66506 44.5579 2.6863C44.6055 2.70754 44.648 2.73888 44.6824 2.77816C44.7556 2.85484 44.7958 2.95716 44.7944 3.06316V4.69416H47.1004C47.2573 4.6948 47.4105 4.74156 47.5411 4.82863C47.6716 4.91571 47.7736 5.03925 47.8345 5.18388C47.8954 5.32851 47.9123 5.48784 47.8833 5.64205C47.8543 5.79626 47.7806 5.93853 47.6714 6.05116C47.598 6.12826 47.5093 6.18903 47.4109 6.22953C47.3125 6.27002 47.2067 6.28932 47.1004 6.28616H44.7944V12.4492C44.7944 12.9825 44.9204 13.3192 45.1724 13.4592C45.4644 13.6117 45.7911 13.6855 46.1204 13.6732C46.3972 13.6728 46.6725 13.6317 46.9374 13.5512C46.9914 13.5372 47.0494 13.5242 47.1104 13.5102C47.1878 13.4955 47.2665 13.4888 47.3454 13.4902C47.4403 13.4904 47.5342 13.5094 47.6218 13.5462C47.7093 13.5829 47.7887 13.6366 47.8554 13.7042C47.9273 13.7701 47.9845 13.8505 48.0232 13.9401C48.0618 14.0298 48.0809 14.1266 48.0794 14.2242C48.0794 14.5372 47.9234 14.7762 47.6104 14.9392C47.0806 15.1835 46.5037 15.3088 45.9204 15.3062L45.9114 15.3082ZM51.8114 15.2082C51.6903 15.2098 51.5702 15.1871 51.458 15.1416C51.3458 15.096 51.2439 15.0285 51.1583 14.9429C51.0726 14.8574 51.005 14.7556 50.9593 14.6434C50.9137 14.5313 50.8909 14.4112 50.8924 14.2902V6.29016H49.6924C49.4802 6.29016 49.2767 6.20588 49.1267 6.05585C48.9766 5.90582 48.8924 5.70233 48.8924 5.49016C48.8891 5.38375 48.9083 5.27784 48.9486 5.1793C48.9889 5.08077 49.0495 4.9918 49.1264 4.91816C49.2005 4.84572 49.2882 4.78863 49.3845 4.75019C49.4808 4.71175 49.5837 4.69271 49.6874 4.69416H50.8874V3.51016C50.8874 2.69416 51.0337 2.02416 51.3264 1.50016C51.5829 1.01229 51.9815 0.613737 52.4694 0.357161C52.9292 0.1207 53.4392 -0.00173994 53.9564 0.000161072C54.5722 -0.00542507 55.1807 0.134361 55.7324 0.408161C55.8686 0.477203 55.9844 0.580614 56.0684 0.708161C56.1549 0.830359 56.2014 0.976416 56.2014 1.12616C56.2016 1.22667 56.182 1.32624 56.1435 1.4191C56.1051 1.51196 56.0486 1.59628 55.9774 1.66716C55.9102 1.74118 55.8282 1.80019 55.7367 1.84034C55.6452 1.88049 55.5463 1.90088 55.4464 1.90016C55.2881 1.89925 55.1306 1.87876 54.9774 1.83916C54.6504 1.79816 54.4674 1.77816 54.4264 1.77816C53.8684 1.77816 53.45 1.90716 53.1714 2.16516C52.8927 2.42316 52.753 2.89249 52.7524 3.57316V4.69416H55.3034C55.4604 4.6946 55.6137 4.74122 55.7444 4.82822C55.8751 4.91522 55.9773 5.03875 56.0383 5.18342C56.0993 5.32809 56.1164 5.48751 56.0874 5.64181C56.0584 5.79611 55.9847 5.93847 55.8754 6.05116C55.8018 6.12818 55.7128 6.1889 55.6143 6.22938C55.5158 6.26986 55.4098 6.28921 55.3034 6.28616H52.7524V14.2862C52.7549 14.4082 52.7317 14.5294 52.6843 14.6419C52.637 14.7544 52.5664 14.8557 52.4774 14.9392C52.3897 15.0245 52.2859 15.0915 52.1721 15.1363C52.0583 15.1811 51.9367 15.2028 51.8144 15.2002L51.8114 15.2082ZM61.9114 15.3082C60.8634 15.3082 59.945 15.0838 59.1564 14.6352C58.373 14.1925 57.7378 13.5284 57.3304 12.7262C56.9017 11.9028 56.6874 10.9608 56.6874 9.90016C56.6874 8.83949 56.9017 7.89716 57.3304 7.07316C57.7389 6.27012 58.3755 5.60565 59.1604 5.16316C59.949 4.71449 60.869 4.49016 61.9204 4.49016C62.9544 4.49016 63.8657 4.71449 64.6544 5.16316C65.4388 5.60754 66.077 6.27046 66.4914 7.07116C66.926 7.89516 67.1437 8.83749 67.1444 9.89816C67.145 10.9588 66.9274 11.9008 66.4914 12.7242C66.0773 13.5253 65.439 14.1886 64.6544 14.6332C63.8624 15.0825 62.951 15.3068 61.9204 15.3062L61.9114 15.3082ZM61.9114 13.6142C62.468 13.6142 63.0166 13.4812 63.5114 13.2262C64.0446 12.9489 64.4861 12.5231 64.7824 12.0002C65.1157 11.4422 65.2824 10.7348 65.2824 9.87816C65.2824 9.03416 65.1157 8.33416 64.7824 7.77816C64.49 7.25765 64.0511 6.83448 63.5204 6.56116C63.0234 6.31323 62.4757 6.18417 61.9204 6.18416C61.3578 6.18222 60.8024 6.3113 60.2984 6.56116C59.7681 6.83171 59.3309 7.25489 59.0434 7.77616C58.7167 8.33283 58.5534 9.03283 58.5534 9.87616C58.5534 10.7328 58.7167 11.4402 59.0434 11.9982C59.3324 12.5205 59.7689 12.9462 60.2984 13.2222C60.8001 13.4798 61.3563 13.6136 61.9204 13.6122L61.9114 13.6142ZM70.6494 15.2002C70.5283 15.2018 70.4082 15.1791 70.296 15.1336C70.1838 15.088 70.0819 15.0205 69.9963 14.9349C69.9106 14.8494 69.843 14.7476 69.7973 14.6354C69.7516 14.5233 69.7289 14.4032 69.7304 14.2822V1.04116C69.7282 0.918489 69.7506 0.796626 69.7963 0.682757C69.842 0.568889 69.91 0.465321 69.9964 0.378161C70.0796 0.288532 70.1807 0.217449 70.2932 0.169548C70.4057 0.121646 70.5271 0.0980033 70.6494 0.100161C70.7738 0.0958253 70.8978 0.117156 71.0136 0.162824C71.1294 0.208492 71.2346 0.277519 71.3226 0.365607C71.4106 0.453695 71.4795 0.558957 71.5251 0.674836C71.5706 0.790716 71.5918 0.914732 71.5874 1.03916V14.2862C71.5899 14.4082 71.5667 14.5294 71.5193 14.6419C71.472 14.7544 71.4014 14.8557 71.3124 14.9392C71.2247 15.0245 71.1209 15.0915 71.0071 15.1363C70.8933 15.1811 70.7717 15.2028 70.6494 15.2002ZM79.1174 15.3002C78.2746 15.3012 77.4467 15.0794 76.7174 14.6572C75.9445 14.2118 75.309 13.5624 74.8804 12.7802C74.4137 11.9568 74.1804 10.9942 74.1804 9.89216C74.1804 8.79016 74.4137 7.82749 74.8804 7.00416C75.3107 6.2237 75.9472 5.57648 76.7204 5.13316C77.4497 4.71093 78.2777 4.4891 79.1204 4.49016C80.4537 4.49016 81.617 5.00716 82.6104 6.04116V1.04116C82.6067 0.91586 82.6293 0.791182 82.6767 0.675117C82.724 0.559052 82.7951 0.45416 82.8854 0.367161C82.9727 0.281129 83.0763 0.21338 83.1902 0.167878C83.304 0.122376 83.4258 0.100034 83.5484 0.102161C83.6705 0.099623 83.7918 0.122895 83.9043 0.170456C84.0168 0.218017 84.1181 0.288795 84.2014 0.378161C84.2877 0.465321 84.3557 0.568889 84.4014 0.682757C84.4471 0.796626 84.4695 0.918489 84.4674 1.04116V14.2862C84.4688 14.4072 84.4461 14.5273 84.4004 14.6394C84.3547 14.7516 84.2871 14.8534 84.2014 14.9389C84.1158 15.0245 84.0139 15.092 83.9017 15.1376C83.7895 15.1831 83.6694 15.2058 83.5484 15.2042C83.4258 15.2063 83.304 15.1839 83.1902 15.1384C83.0763 15.0929 82.9727 15.0252 82.8854 14.9392C82.7965 14.8555 82.7261 14.7542 82.6787 14.6418C82.6314 14.5293 82.6081 14.4082 82.6104 14.2862V13.7552C81.617 14.7892 80.4537 15.3062 79.1204 15.3062L79.1174 15.3002ZM79.3834 13.5652C79.9966 13.5682 80.6016 13.4249 81.1484 13.1472C81.6984 12.8686 82.1929 12.4917 82.6074 12.0352V7.75516C82.1929 7.29861 81.6984 6.92174 81.1484 6.64316C80.6017 6.36512 79.9966 6.22148 79.3834 6.22416C78.376 6.22416 77.5664 6.54416 76.9544 7.18416C76.3424 7.82416 76.0364 8.72949 76.0364 9.90016C76.0364 11.0702 76.3424 11.9748 76.9544 12.6142C77.5664 13.2535 78.376 13.5725 79.3834 13.5712V13.5652ZM88.6274 15.1572C88.3245 15.1561 88.0344 15.0353 87.8203 14.8212C87.6062 14.6071 87.4854 14.317 87.4844 14.0142V13.9002C87.4859 13.5975 87.6069 13.3077 87.8209 13.0937C88.0349 12.8797 88.3247 12.7587 88.6274 12.7572H88.8274C89.1305 12.7579 89.4211 12.8785 89.6358 13.0926C89.8504 13.3067 89.9718 13.597 89.9734 13.9002V14.0222C89.9723 14.3248 89.8517 14.6148 89.6378 14.8289C89.4239 15.043 89.134 15.1638 88.8314 15.1652L88.6274 15.1572ZM95.6464 15.3002C95.0714 15.3055 94.5027 15.18 93.9834 14.9332C93.4849 14.6987 93.0638 14.3268 92.7694 13.8612C92.4655 13.3755 92.3095 12.8119 92.3204 12.2392C92.3204 11.2325 92.7184 10.4298 93.5144 9.83116C94.3104 9.23249 95.477 8.93249 97.0144 8.93116H99.4844V8.76816C99.4844 7.87016 99.263 7.22383 98.8204 6.82916C98.3777 6.43449 97.6874 6.23716 96.7494 6.23716C96.2875 6.23229 95.8262 6.27316 95.3724 6.35916C94.9197 6.45477 94.4732 6.57766 94.0354 6.72716C93.9489 6.75103 93.86 6.76478 93.7704 6.76816C93.6712 6.76892 93.5729 6.74935 93.4816 6.71065C93.3902 6.67195 93.3078 6.61495 93.2394 6.54316C93.1665 6.47141 93.109 6.38553 93.0705 6.29078C93.032 6.19603 93.0132 6.09442 93.0154 5.99216C93.0154 5.62549 93.192 5.36683 93.5454 5.21616C94.6607 4.7356 95.8619 4.48592 97.0764 4.48216C98.0144 4.48216 98.8067 4.67249 99.4534 5.05316C100.064 5.39663 100.56 5.91109 100.881 6.53316C101.189 7.14347 101.347 7.81855 101.341 8.50216V14.2782C101.344 14.4003 101.32 14.5215 101.273 14.634C101.225 14.7465 101.155 14.8478 101.065 14.9312C100.978 15.0172 100.874 15.0849 100.761 15.1304C100.647 15.1759 100.525 15.1983 100.402 15.1962C100.281 15.1979 100.161 15.1754 100.049 15.1299C99.9368 15.0843 99.8349 15.0168 99.7493 14.9312C99.6637 14.8456 99.5962 14.7437 99.5507 14.6315C99.5052 14.5194 99.4826 14.3992 99.4844 14.2782V13.7472C98.4764 14.7865 97.197 15.3062 95.6464 15.3062V15.3002ZM96.3404 13.6672C96.9458 13.6653 97.5416 13.5149 98.0754 13.2292C98.6081 12.9553 99.0855 12.585 99.4834 12.1372V10.4292H97.2584C95.2044 10.4292 94.1774 10.9665 94.1774 12.0412C94.1688 12.263 94.2092 12.4839 94.2956 12.6883C94.382 12.8928 94.5123 13.0757 94.6774 13.2242C95.0107 13.5242 95.565 13.6738 96.3404 13.6732V13.6672ZM105.34 2.56716C105.065 2.56585 104.801 2.45585 104.606 2.2611C104.412 2.06635 104.302 1.80258 104.3 1.52716V1.44516C104.301 1.16957 104.411 0.905547 104.606 0.710578C104.801 0.515609 105.065 0.405478 105.34 0.404161H105.463C105.739 0.405478 106.003 0.515609 106.198 0.710578C106.392 0.905547 106.502 1.16957 106.503 1.44516V1.52716C106.502 1.80258 106.392 2.06635 106.197 2.2611C106.003 2.45585 105.739 2.56585 105.463 2.56716H105.34ZM105.38 15.2002C105.259 15.2019 105.139 15.1794 105.027 15.1339C104.915 15.0883 104.813 15.0208 104.727 14.9352C104.642 14.8496 104.574 14.7477 104.529 14.6355C104.483 14.5234 104.461 14.4032 104.462 14.2822V5.53116C104.46 5.40841 104.482 5.28645 104.528 5.17243C104.573 5.05841 104.641 4.95462 104.727 4.86716C104.811 4.77828 104.912 4.70788 105.025 4.66052C105.137 4.61316 105.258 4.58987 105.38 4.59216C105.505 4.58783 105.629 4.60916 105.745 4.65482C105.861 4.70048 105.966 4.76949 106.054 4.85756C106.142 4.94563 106.211 5.05088 106.257 5.16676C106.302 5.28265 106.324 5.40668 106.319 5.53116V14.2862C106.322 14.4083 106.298 14.5295 106.251 14.642C106.203 14.7545 106.133 14.8558 106.043 14.9392C105.956 15.0246 105.852 15.0917 105.738 15.1365C105.624 15.1813 105.503 15.203 105.38 15.2002V15.2002Z" fill="var(--fill-0, #1A212E)"/>
</svg>
