<svg preserveAspectRatio="none" width="100%" height="100%" overflow="visible" style="display: block;" viewBox="0 0 16 20" fill="none" xmlns="http://www.w3.org/2000/svg">
<path id="Clicking hand" opacity="0.6" d="M5.41667 4.42708C5.41667 4.11458 5.52083 3.85417 5.72917 3.64583C5.97222 3.4375 6.25 3.33333 6.5625 3.33333C6.875 3.33333 7.13542 3.4375 7.34375 3.64583C7.55208 3.85417 7.65625 4.11458 7.65625 4.42708V9.375L9.01042 9.53125L14.4792 11.9792C14.7917 12.1181 15.0174 12.3264 15.1563 12.6042C15.3299 12.8472 15.4167 13.1424 15.4167 13.4896V18.3333C15.4167 18.7847 15.2431 19.1667 14.8958 19.4792C14.5833 19.7917 14.2014 19.9653 13.75 20H6.5625C6.11111 20 5.72917 19.8264 5.41667 19.4792L0 14.8438L0.833333 13.9583C1.04167 13.75 1.30208 13.6458 1.61458 13.6458H1.875L5.41667 15.5208V4.42708ZM6.5625 0C7.77778 0 8.81944 0.434028 9.6875 1.30208C10.5556 2.17014 10.9896 3.21181 10.9896 4.42708C10.9896 5.26042 10.7813 6.02431 10.3646 6.71875C9.98264 7.37847 9.44444 7.89931 8.75 8.28125V6.92708C9.51389 6.26736 9.89583 5.45139 9.89583 4.47917C9.89583 3.50694 9.56597 2.70833 8.90625 2.08333C8.24653 1.42361 7.44792 1.09375 6.51042 1.09375C5.60764 1.09375 4.82639 1.42361 4.16667 2.08333C3.54167 2.70833 3.22917 3.50694 3.22917 4.47917C3.22917 5.45139 3.59375 6.26736 4.32292 6.92708V8.28125C3.62847 7.89931 3.07292 7.37847 2.65625 6.71875C2.27431 6.02431 2.08333 5.26042 2.08333 4.42708C2.08333 3.21181 2.51736 2.17014 3.38542 1.30208C4.25347 0.434028 5.3125 0 6.5625 0Z" fill="var(--fill-0, #146DA6)"/>
</svg>
