<svg preserveAspectRatio="none" width="100%" height="100%" overflow="visible" style="display: block;" viewBox="0 0 17 23" fill="none" xmlns="http://www.w3.org/2000/svg">
<path id="Large avatar" d="M11.2 0C12.7283 0 14.0382 0.545809 15.1298 1.63743C16.2214 2.72904 16.7673 4.06082 16.7673 5.63275C16.7673 7.16101 16.2214 8.47096 15.1298 9.56257C14.0382 10.6542 12.7283 11.2 11.2 11.2C9.67174 11.2 8.36179 10.6542 7.27018 9.56257C6.17856 8.47096 5.63275 7.16101 5.63275 5.63275C5.63275 4.06082 6.17856 2.72904 7.27018 1.63743C8.36179 0.545809 9.67174 0 11.2 0ZM12.8 13.6C12.8 13.9836 12.8 14.6721 12.8 15.2C12.8 15.6 12.8 16 12.8 16.8C12.8 18 12.8 18.9957 12.8 20V22.4H0V19.5836C0 18.5793 0.502144 17.6624 1.50643 16.8327C2.51072 15.9595 3.86433 15.2827 5.56725 14.8023C7.31384 14.2784 10.7914 13.6 12.8 13.6Z" fill="var(--fill-0, #50CEE1)"/>
</svg>
