<svg preserveAspectRatio="none" width="100%" height="100%" overflow="visible" style="display: block;" viewBox="0 0 26 18" fill="none" xmlns="http://www.w3.org/2000/svg">
<path id="Laptop" d="M21.3496 0C21.9163 0 22.3998 0.217057 22.7998 0.650391C23.2331 1.05038 23.4502 1.55043 23.4502 2.15039V12.7998C23.4502 13.3998 23.2331 13.9163 22.7998 14.3496C22.5234 14.626 22.2066 14.8043 21.8506 14.8896C21.7821 14.6038 21.6693 14.3219 21.498 14.0566C21.2019 13.5281 20.7522 13.1528 20.2363 12.9229L20.2334 12.9219L19.9609 12.7998H21.3496V2.15039H4.25V12.7998H10.6416C10.6571 12.8085 10.6719 12.8186 10.6875 12.8271L10.7334 12.8525V14.5596L9.89746 14.1172H9.29199C8.64637 14.1173 8.02236 14.3497 7.53613 14.8359L7.51855 14.8525L5.68555 16.7998L6.62012 17.5996H0V14.9502H4.25C3.68333 14.9502 3.18333 14.7496 2.75 14.3496C2.35013 13.9163 2.15039 13.3997 2.15039 12.7998V2.15039C2.15039 1.55049 2.35013 1.05036 2.75 0.650391C3.18333 0.217057 3.68333 1.6143e-08 4.25 0H21.3496ZM20.334 15.5918V17.5996H20.333V15.5918L20.3203 15.3916C20.329 15.4557 20.334 15.5225 20.334 15.5918ZM25.5996 14.9502V17.5996H21.9336V15.5918C21.9336 15.3792 21.9115 15.1638 21.8652 14.9502H25.5996ZM20.2168 15.0371L20.2812 15.2061C20.2639 15.1471 20.2418 15.0909 20.2158 15.0371L20.1738 14.958C20.1891 14.9838 20.2037 15.01 20.2168 15.0371ZM20.0293 14.7275L20.0801 14.8027C20.064 14.7767 20.0465 14.7518 20.0283 14.7275L19.9707 14.6572C19.9912 14.6799 20.011 14.7031 20.0293 14.7275ZM19.8359 14.5322L19.9062 14.5918C19.8837 14.571 19.8597 14.5513 19.835 14.5322L19.7578 14.4775C19.7848 14.495 19.8111 14.5131 19.8359 14.5322ZM16.0469 12.7998L19.584 14.3838L19.6738 14.4277C19.6448 14.4121 19.6142 14.3977 19.583 14.3838L16.0459 12.7998H16.0469Z" fill="var(--fill-0, #50CEE1)"/>
</svg>
