<svg preserveAspectRatio="none" width="100%" height="100%" overflow="visible" style="display: block;" viewBox="0 0 14 13" fill="none" xmlns="http://www.w3.org/2000/svg">
<path id="briefcase" opacity="0.6" d="M5.58685 0H8.41315C8.7856 0 9.10329 0.139095 9.3662 0.417284C9.65102 0.674074 9.79343 0.984362 9.79343 1.34815V2.7284H12.6197C12.9922 2.7284 13.3099 2.86749 13.5728 3.14568C13.8576 3.40247 14 3.72346 14 4.10864V11.6198C14 12.0049 13.8576 12.3366 13.5728 12.6148C13.3099 12.8716 12.9922 13 12.6197 13H1.38028C1.00782 13 0.679186 12.8716 0.394366 12.6148C0.131455 12.3366 0 12.0049 0 11.6198V4.10864C0 3.72346 0.131455 3.40247 0.394366 3.14568C0.679186 2.86749 1.00782 2.7284 1.38028 2.7284H4.20657V1.34815C4.20657 0.984362 4.33803 0.674074 4.60094 0.417284C4.88576 0.139095 5.2144 0 5.58685 0ZM8.41315 2.7284V1.34815H5.58685V2.7284H8.41315Z" fill="var(--fill-0, #146DA6)"/>
</svg>
