<svg preserveAspectRatio="none" width="100%" height="100%" overflow="visible" style="display: block;" viewBox="0 0 12 11" fill="none" xmlns="http://www.w3.org/2000/svg">
<path id="briefcase" opacity="0.6" d="M4.46948 0H6.73052C7.02848 0 7.28263 0.111276 7.49296 0.333827C7.72081 0.539259 7.83474 0.78749 7.83474 1.07852V2.18272H10.0958C10.3937 2.18272 10.6479 2.29399 10.8582 2.51654C11.0861 2.72198 11.2 2.97877 11.2 3.28691V9.2958C11.2 9.60395 11.0861 9.8693 10.8582 10.0919C10.6479 10.2973 10.3937 10.4 10.0958 10.4H1.10423C0.80626 10.4 0.543349 10.2973 0.315493 10.0919C0.105164 9.8693 0 9.60395 0 9.2958V3.28691C0 2.97877 0.105164 2.72198 0.315493 2.51654C0.543349 2.29399 0.80626 2.18272 1.10423 2.18272H3.36526V1.07852C3.36526 0.78749 3.47042 0.539259 3.68075 0.333827C3.90861 0.111276 4.17152 0 4.46948 0ZM6.73052 2.18272V1.07852H4.46948V2.18272H6.73052Z" fill="var(--fill-0, #146DA6)"/>
</svg>
